<svg version="1.1" viewBox="0.0 0.0 1584.2204724409448 555.8661417322835" fill="none" stroke="none" stroke-linecap="square" stroke-miterlimit="10" xmlns:xlink="http://www.w3.org/1999/xlink" xmlns="http://www.w3.org/2000/svg"><clipPath id="p.0"><path d="m0 0l1584.2205 0l0 555.86615l-1584.2205 0l0 -555.86615z" clip-rule="nonzero"/></clipPath><g clip-path="url(#p.0)"><path fill="#000000" fill-opacity="0.0" d="m0 0l1584.2205 0l0 555.86615l-1584.2205 0z" fill-rule="evenodd"/><path fill="#ffffff" d="m0 1.1076115l1584.2205 0l0 555.874l-1584.2205 0z" fill-rule="evenodd"/><path fill="#ffffff" d="m37.603676 121.55227l0 0c0 -30.110992 24.409782 -54.520775 54.520775 -54.520775l218.07657 0l0 0c14.459808 0 28.327362 5.7441406 38.552002 15.968765c10.22464 10.224632 15.96875 24.092201 15.96875 38.55201l0 353.63562c0 30.110992 -24.40976 54.520782 -54.520752 54.520782l-218.07657 0c-30.110992 0 -54.520775 -24.40979 -54.520775 -54.520782z" fill-rule="evenodd"/><path stroke="#6d9eeb" stroke-width="1.0" stroke-linejoin="round" stroke-linecap="butt" d="m37.603676 121.55227l0 0c0 -30.110992 24.409782 -54.520775 54.520775 -54.520775l218.07657 0l0 0c14.459808 0 28.327362 5.7441406 38.552002 15.968765c10.22464 10.224632 15.96875 24.092201 15.96875 38.55201l0 353.63562c0 30.110992 -24.40976 54.520782 -54.520752 54.520782l-218.07657 0c-30.110992 0 -54.520775 -24.40979 -54.520775 -54.520782z" fill-rule="evenodd"/><path fill="#000000" fill-opacity="0.0" d="m1143.0659 298.37027l104.97632 -231.33847l209.95276 0l104.97644 231.33847l-104.97644 231.33847l-209.95276 0z" fill-rule="evenodd"/><path stroke="#6d9eeb" stroke-width="2.0" stroke-linejoin="round" stroke-linecap="butt" stroke-dasharray="2.0,6.0" d="m1143.0659 298.37027l104.97632 -231.33847l209.95276 0l104.97644 231.33847l-104.97644 231.33847l-209.95276 0z" fill-rule="evenodd"/><path fill="#000000" fill-opacity="0.0" d="m141.40945 170.46489l28.231308 -56.46261l72.57138 0l28.231308 56.46261l-28.231308 56.462616l-72.57138 0z" fill-rule="evenodd"/><path stroke="#6d9eeb" stroke-width="3.0" stroke-linejoin="round" stroke-linecap="butt" d="m141.40945 170.46489l28.231308 -56.46261l72.57138 0l28.231308 56.46261l-28.231308 56.462616l-72.57138 0z" fill-rule="evenodd"/><path fill="#000000" fill-opacity="0.0" d="m169.64076 226.9275l72.42236 -112.95261" fill-rule="evenodd"/><path stroke="#6d9eeb" stroke-width="3.0" stroke-linejoin="round" stroke-linecap="butt" d="m169.64076 226.9275l72.42236 -112.95261" fill-rule="evenodd"/><path fill="#000000" fill-opacity="0.0" d="m208.02267 170.05505l62.420776 0.40983582" fill-rule="evenodd"/><path stroke="#6d9eeb" stroke-width="3.0" stroke-linejoin="round" stroke-linecap="butt" d="m208.02267 170.05505l62.420776 0.40983582" fill-rule="evenodd"/><path fill="#000000" fill-opacity="0.0" d="m480.0 192.11812l42.527588 -85.055084l91.3858 0l42.527527 85.055084l-42.527527 85.05507l-91.3858 0z" fill-rule="evenodd"/><path stroke="#c9daf8" stroke-width="3.0" stroke-linejoin="round" stroke-linecap="butt" d="m480.0 192.11812l42.527588 -85.055084l91.3858 0l42.527527 85.055084l-42.527527 85.05507l-91.3858 0z" fill-rule="evenodd"/><path fill="#000000" fill-opacity="0.0" d="m522.5276 277.1732l98.99213 -170.14172" fill-rule="evenodd"/><path stroke="#c9daf8" stroke-width="3.0" stroke-linejoin="round" stroke-linecap="butt" d="m522.5276 277.1732l98.99213 -170.14172" fill-rule="evenodd"/><path fill="#000000" fill-opacity="0.0" d="m571.0866 191.48819l85.35431 0.6299286" fill-rule="evenodd"/><path stroke="#c9daf8" stroke-width="3.0" stroke-linejoin="round" stroke-linecap="butt" d="m571.0866 191.48819l85.35431 0.6299286" fill-rule="evenodd"/><path fill="#000000" fill-opacity="0.0" d="m480.00195 425.47226l42.530823 -85.061646l91.35895 0l42.530884 85.061646l-42.530884 85.061646l-91.35895 0z" fill-rule="evenodd"/><path stroke="#c9daf8" stroke-width="3.0" stroke-linejoin="round" stroke-linecap="butt" d="m480.00195 425.47226l42.530823 -85.061646l91.35895 0l42.530884 85.061646l-42.530884 85.061646l-91.35895 0z" fill-rule="evenodd"/><path fill="#000000" fill-opacity="0.0" d="m522.5328 510.5339l99.01886 -170.16455" fill-rule="evenodd"/><path stroke="#c9daf8" stroke-width="3.0" stroke-linejoin="round" stroke-linecap="butt" d="m522.5328 510.5339l99.01886 -170.16455" fill-rule="evenodd"/><path fill="#000000" fill-opacity="0.0" d="m571.0783 424.85483l85.3443 0.61743164" fill-rule="evenodd"/><path stroke="#c9daf8" stroke-width="3.0" stroke-linejoin="round" stroke-linecap="butt" d="m571.0783 424.85483l85.3443 0.61743164" fill-rule="evenodd"/><path fill="#000000" fill-opacity="0.0" d="m720.99414 317.23273l42.530884 -85.06166l91.35895 0l42.530823 85.06166l-42.530823 85.061646l-91.35895 0z" fill-rule="evenodd"/><path stroke="#6d9eeb" stroke-width="3.0" stroke-linejoin="round" stroke-linecap="butt" d="m720.99414 317.23273l42.530884 -85.06166l91.35895 0l42.530823 85.06166l-42.530823 85.061646l-91.35895 0z" fill-rule="evenodd"/><path fill="#000000" fill-opacity="0.0" d="m763.525 402.29437l99.01886 -170.16455" fill-rule="evenodd"/><path stroke="#6d9eeb" stroke-width="3.0" stroke-linejoin="round" stroke-linecap="butt" d="m763.525 402.29437l99.01886 -170.16455" fill-rule="evenodd"/><path fill="#000000" fill-opacity="0.0" d="m812.0705 316.6153l85.3443 0.61743164" fill-rule="evenodd"/><path stroke="#6d9eeb" stroke-width="3.0" stroke-linejoin="round" stroke-linecap="butt" d="m812.0705 316.6153l85.3443 0.61743164" fill-rule="evenodd"/><path fill="#000000" fill-opacity="0.0" d="m927.7768 184.6557l42.530823 -85.06166l91.35901 0l42.53076 85.06166l-42.53076 85.061646l-91.35901 0z" fill-rule="evenodd"/><path stroke="#1c4587" stroke-width="3.0" stroke-linejoin="round" stroke-linecap="butt" d="m927.7768 184.6557l42.530823 -85.06166l91.35901 0l42.53076 85.06166l-42.53076 85.061646l-91.35901 0z" fill-rule="evenodd"/><path fill="#000000" fill-opacity="0.0" d="m970.3076 269.71735l99.01892 -170.16455" fill-rule="evenodd"/><path stroke="#1c4587" stroke-width="3.0" stroke-linejoin="round" stroke-linecap="butt" d="m970.3076 269.71735l99.01892 -170.16455" fill-rule="evenodd"/><path fill="#000000" fill-opacity="0.0" d="m1018.85315 184.03827l85.34424 0.61743164" fill-rule="evenodd"/><path stroke="#1c4587" stroke-width="3.0" stroke-linejoin="round" stroke-linecap="butt" d="m1018.85315 184.03827l85.34424 0.61743164" fill-rule="evenodd"/><path fill="#000000" fill-opacity="0.0" d="m927.7768 423.98947l42.530823 -85.061646l91.35901 0l42.53076 85.061646l-42.53076 85.061646l-91.35901 0z" fill-rule="evenodd"/><path stroke="#1c4587" stroke-width="3.0" stroke-linejoin="round" stroke-linecap="butt" d="m927.7768 423.98947l42.530823 -85.061646l91.35901 0l42.53076 85.061646l-42.53076 85.061646l-91.35901 0z" fill-rule="evenodd"/><path fill="#000000" fill-opacity="0.0" d="m970.3076 509.05112l99.01892 -170.16455" fill-rule="evenodd"/><path stroke="#1c4587" stroke-width="3.0" stroke-linejoin="round" stroke-linecap="butt" d="m970.3076 509.05112l99.01892 -170.16455" fill-rule="evenodd"/><path fill="#000000" fill-opacity="0.0" d="m1018.85315 423.37204l85.34424 0.61743164" fill-rule="evenodd"/><path stroke="#1c4587" stroke-width="3.0" stroke-linejoin="round" stroke-linecap="butt" d="m1018.85315 423.37204l85.34424 0.61743164" fill-rule="evenodd"/><path fill="#000000" fill-opacity="0.0" d="m656.4409 192.11812l107.08667 0l0 40.06299" fill-rule="evenodd"/><path stroke="#000000" stroke-width="1.0" stroke-linejoin="round" stroke-linecap="butt" d="m656.4409 192.1181l107.08667 0l0 36.63591" fill-rule="evenodd"/><path fill="#000000" stroke="#000000" stroke-width="1.0" stroke-linecap="butt" d="m763.5276 228.75401l-1.1246338 -1.124588l1.1246338 3.0897827l1.1245728 -3.0897827z" fill-rule="evenodd"/><path fill="#000000" fill-opacity="0.0" d="m656.4226 425.47226l107.1181 0l0 -23.181091" fill-rule="evenodd"/><path stroke="#000000" stroke-width="1.0" stroke-linejoin="round" stroke-linecap="butt" d="m656.4226 425.4723l107.1181 0l0 -19.754028" fill-rule="evenodd"/><path fill="#000000" stroke="#000000" stroke-width="1.0" stroke-linecap="butt" d="m763.5407 405.71826l1.1245728 1.1245728l-1.1245728 -3.0897522l-1.1246338 3.0897522z" fill-rule="evenodd"/><path fill="#000000" fill-opacity="0.0" d="m854.884 232.17107l0 -47.527557l72.8819 0" fill-rule="evenodd"/><path stroke="#000000" stroke-width="1.0" stroke-linejoin="round" stroke-linecap="butt" d="m854.8839 232.17105l0 -47.527557l69.454834 0" fill-rule="evenodd"/><path fill="#000000" stroke="#000000" stroke-width="1.0" stroke-linecap="butt" d="m924.33875 184.6435l-1.1245728 1.124588l3.0897827 -1.124588l-3.0897827 -1.124588z" fill-rule="evenodd"/><path fill="#000000" fill-opacity="0.0" d="m854.884 402.29437l0 21.700806l72.8819 0" fill-rule="evenodd"/><path stroke="#000000" stroke-width="1.0" stroke-linejoin="round" stroke-linecap="butt" d="m854.8839 402.29437l0 21.700775l69.454834 0" fill-rule="evenodd"/><path fill="#000000" stroke="#000000" stroke-width="1.0" stroke-linecap="butt" d="m924.33875 423.99515l-1.1245728 1.1246033l3.0897827 -1.1246033l-3.0897827 -1.1245728z" fill-rule="evenodd"/><path fill="#000000" fill-opacity="0.0" d="m613.8917 510.5339l0 -0.8411255l356.4095 0l0 -0.6391907" fill-rule="evenodd"/><path stroke="#000000" stroke-width="1.0" stroke-linejoin="round" stroke-linecap="butt" d="m613.8917 510.5339l0 -0.841156l353.04248 0" fill-rule="evenodd"/><path fill="#000000" stroke="#000000" stroke-width="1.0" stroke-linecap="butt" d="m966.9342 509.69275l-0.89508057 1.3145752l2.8258057 -1.6810913l-3.2453003 -0.528595z" fill-rule="evenodd"/><path fill="#000000" fill-opacity="0.0" d="m1255.9132 184.6557l42.53076 -85.06166l91.35901 0l42.530884 85.06166l-42.530884 85.061646l-91.35901 0z" fill-rule="evenodd"/><path stroke="#1c4587" stroke-width="3.0" stroke-linejoin="round" stroke-linecap="butt" d="m1255.9132 184.6557l42.53076 -85.06166l91.35901 0l42.530884 85.06166l-42.530884 85.061646l-91.35901 0z" fill-rule="evenodd"/><path fill="#000000" fill-opacity="0.0" d="m1298.444 269.71735l99.01892 -170.16455" fill-rule="evenodd"/><path stroke="#1c4587" stroke-width="3.0" stroke-linejoin="round" stroke-linecap="butt" d="m1298.444 269.71735l99.01892 -170.16455" fill-rule="evenodd"/><path fill="#000000" fill-opacity="0.0" d="m1346.9895 184.03827l85.34436 0.61743164" fill-rule="evenodd"/><path stroke="#1c4587" stroke-width="3.0" stroke-linejoin="round" stroke-linecap="butt" d="m1346.9895 184.03827l85.34436 0.61743164" fill-rule="evenodd"/><path fill="#000000" fill-opacity="0.0" d="m1255.9132 423.98947l42.53076 -85.061646l91.35901 0l42.530884 85.061646l-42.530884 85.061646l-91.35901 0z" fill-rule="evenodd"/><path stroke="#1c4587" stroke-width="3.0" stroke-linejoin="round" stroke-linecap="butt" d="m1255.9132 423.98947l42.53076 -85.061646l91.35901 0l42.530884 85.061646l-42.530884 85.061646l-91.35901 0z" fill-rule="evenodd"/><path fill="#000000" fill-opacity="0.0" d="m1298.444 509.05112l99.01892 -170.16455" fill-rule="evenodd"/><path stroke="#1c4587" stroke-width="3.0" stroke-linejoin="round" stroke-linecap="butt" d="m1298.444 509.05112l99.01892 -170.16455" fill-rule="evenodd"/><path fill="#000000" fill-opacity="0.0" d="m1346.9895 423.37204l85.34436 0.61743164" fill-rule="evenodd"/><path stroke="#1c4587" stroke-width="3.0" stroke-linejoin="round" stroke-linecap="butt" d="m1346.9895 423.37204l85.34436 0.61743164" fill-rule="evenodd"/><path fill="#000000" fill-opacity="0.0" d="m1104.1974 184.6557l75.86133 0l0 0.06298828l75.855225 0" fill-rule="evenodd"/><path stroke="#000000" stroke-width="1.0" stroke-linejoin="round" stroke-linecap="butt" d="m1104.1974 184.6557l75.86133 0l0 0.06298828l72.4281 0" fill-rule="evenodd"/><path fill="#000000" stroke="#000000" stroke-width="1.0" stroke-linecap="butt" d="m1252.4868 184.71869l-1.1245117 1.124588l3.0897217 -1.124588l-3.0897217 -1.124588z" fill-rule="evenodd"/><path fill="#000000" fill-opacity="0.0" d="m1104.1974 423.98947l75.86133 0l0 0.06298828l75.855225 0" fill-rule="evenodd"/><path stroke="#000000" stroke-width="1.0" stroke-linejoin="round" stroke-linecap="butt" d="m1104.1974 423.98947l75.86133 0l0 0.06298828l72.4281 0" fill-rule="evenodd"/><path fill="#000000" stroke="#000000" stroke-width="1.0" stroke-linecap="butt" d="m1252.4868 424.05246l-1.1245117 1.1245728l3.0897217 -1.1245728l-3.0897217 -1.1246033z" fill-rule="evenodd"/><path fill="#ffffff" d="m492.35535 413.19394l151.71655 0l0 21.669281l-151.71655 0z" fill-rule="evenodd"/><path fill="#000000" d="m538.32184 427.9017l-5.78125 0l-1.09375 3.046875l-1.828125 0l4.859375 -12.90625l1.921875 0l4.859375 12.90625l-1.828125 0l-1.109375 -3.046875zm-0.484375 -1.3125l-2.40625 -6.640625l-2.40625 6.640625l4.8125 0zm10.522339 -6.046875q1.796875 0 2.890625 1.15625q1.109375 1.140625 1.109375 3.296875l0 5.953125l-1.703125 0l0 -5.796875q0 -1.53125 -0.78125 -2.34375q-0.78125 -0.828125 -2.125 -0.828125q-1.40625 0 -2.25 0.90625q-0.828125 0.90625 -0.828125 2.640625l0 5.421875l-1.703125 0l0 -10.25l1.703125 0l0 2.4375q0.390625 -1.25 1.390625 -1.921875q1.0 -0.671875 2.296875 -0.671875zm11.495972 8.90625l0 1.5l-1.265625 0q-1.5625 0 -2.34375 -0.75q-0.78125 -0.75 -0.78125 -2.5l0 -5.515625l-1.53125 0l0 -1.484375l1.53125 0l0 -2.546875l1.71875 0l0 2.546875l2.65625 0l0 1.484375l-2.65625 0l0 5.5625q0 0.984375 0.359375 1.34375q0.375 0.359375 1.265625 0.359375l1.046875 0zm1.7713013 -11.75q0 -0.46875 0.3125 -0.75q0.328125 -0.296875 0.84375 -0.296875q0.53125 0 0.84375 0.296875q0.3125 0.28125 0.3125 0.75q0 0.46875 -0.3125 0.765625q-0.3125 0.28125 -0.84375 0.28125q-0.515625 0 -0.84375 -0.28125q-0.3125 -0.296875 -0.3125 -0.765625zm2.0 3.0l0 10.25l-1.703125 0l0 -10.25l1.703125 0zm18.404602 3.671875q0 1.984375 -0.796875 3.46875q-0.796875 1.484375 -2.359375 2.296875q-1.5625 0.8125 -3.734375 0.8125l-4.1875 0l0 -13.15625l4.1875 0q2.171875 0 3.734375 0.796875q1.5625 0.796875 2.359375 2.28125q0.796875 1.484375 0.796875 3.5zm-7.03125 5.046875q2.578125 0 3.9375 -1.3125q1.359375 -1.328125 1.359375 -3.734375q0 -2.421875 -1.359375 -3.75q-1.34375 -1.328125 -3.9375 -1.328125l-2.34375 0l0 10.125l2.34375 0zm15.157776 -11.75q2.40625 0 3.96875 1.1875q1.5625 1.1875 2.171875 3.234375l-1.796875 0q-0.5 -1.3125 -1.625 -2.078125q-1.125 -0.78125 -2.75 -0.78125q-1.28125 0 -2.296875 0.625q-1.015625 0.625 -1.609375 1.796875q-0.578125 1.15625 -0.578125 2.734375q0 1.546875 0.578125 2.703125q0.59375 1.15625 1.609375 1.78125q1.015625 0.625 2.296875 0.625q1.625 0 2.75 -0.765625q1.125 -0.78125 1.625 -2.09375l1.796875 0q-0.609375 2.0625 -2.171875 3.25q-1.5625 1.171875 -3.96875 1.171875q-1.859375 0 -3.28125 -0.84375q-1.40625 -0.84375 -2.203125 -2.359375q-0.78125 -1.53125 -0.78125 -3.46875q0 -1.96875 0.78125 -3.484375q0.796875 -1.53125 2.203125 -2.375q1.421875 -0.859375 3.28125 -0.859375zm11.905334 1.71875l0 -1.59375l3.765625 0l0 13.15625l-1.796875 0l0 -11.5625l-1.96875 0z" fill-rule="nonzero"/><path fill="#ffffff" d="m737.3309 306.4016l143.74799 0l0 21.669281l-143.74799 0z" fill-rule="evenodd"/><path fill="#000000" d="m793.5085 318.85938l0 5.296875l-1.703125 0l0 -13.15625l4.1875 0q2.25 0 3.359375 1.0625q1.125 1.046875 1.125 2.875q0 1.84375 -1.15625 2.890625q-1.15625 1.03125 -3.328125 1.03125l-2.484375 0zm2.328125 -1.421875q1.546875 0 2.21875 -0.640625q0.6875 -0.65625 0.6875 -1.859375q0 -1.234375 -0.6875 -1.875q-0.671875 -0.640625 -2.21875 -0.640625l-2.328125 0l0 5.015625l2.328125 0zm12.59021 -6.5625q2.296875 0 3.859375 1.140625q1.5625 1.140625 2.09375 3.09375l-1.78125 0q-0.46875 -1.203125 -1.5625 -1.921875q-1.09375 -0.734375 -2.59375 -0.734375q-1.34375 0 -2.40625 0.625q-1.0625 0.625 -1.671875 1.78125q-0.59375 1.15625 -0.59375 2.734375q0 1.59375 0.609375 2.765625q0.625 1.171875 1.703125 1.796875q1.09375 0.625 2.515625 0.625q1.21875 0 2.21875 -0.515625q1.015625 -0.53125 1.65625 -1.53125q0.640625 -1.0 0.765625 -2.34375l-5.15625 0l0 -1.265625l6.59375 0l0 1.5625q-0.171875 1.5625 -0.96875 2.84375q-0.796875 1.265625 -2.171875 2.015625q-1.359375 0.734375 -3.09375 0.734375q-1.890625 0 -3.359375 -0.84375q-1.453125 -0.84375 -2.265625 -2.359375q-0.796875 -1.53125 -0.796875 -3.484375q0 -1.96875 0.796875 -3.484375q0.8125 -1.515625 2.265625 -2.375q1.46875 -0.859375 3.34375 -0.859375zm16.248962 10.234375l-5.78125 0l-1.09375 3.046875l-1.828125 0l4.859375 -12.90625l1.921875 0l4.859375 12.90625l-1.828125 0l-1.109375 -3.046875zm-0.484375 -1.3125l-2.40625 -6.640625l-2.40625 6.640625l4.8125 0z" fill-rule="nonzero"/><path fill="#ffffff" d="m488.91034 181.28201l158.6142 0l0 21.669296l-158.6142 0z" fill-rule="evenodd"/><path fill="#000000" d="m535.2754 195.98978l-5.78125 0l-1.09375 3.046875l-1.828125 0l4.859375 -12.90625l1.921875 0l4.859375 12.90625l-1.828125 0l-1.109375 -3.046875zm-0.484375 -1.3125l-2.40625 -6.640625l-2.40625 6.640625l4.8125 0zm10.522278 -6.046875q1.796875 0 2.890625 1.15625q1.109375 1.140625 1.109375 3.296875l0 5.953125l-1.703125 0l0 -5.796875q0 -1.53125 -0.78125 -2.34375q-0.78125 -0.828125 -2.125 -0.828125q-1.40625 0 -2.25 0.90625q-0.828125 0.90625 -0.828125 2.640625l0 5.421875l-1.703125 0l0 -10.25l1.703125 0l0 2.4375q0.390625 -1.25 1.390625 -1.921875q1.0 -0.671875 2.296875 -0.671875zm11.495972 8.90625l0 1.5l-1.265625 0q-1.5625 0 -2.34375 -0.75q-0.78125 -0.75 -0.78125 -2.5l0 -5.515625l-1.53125 0l0 -1.484375l1.53125 0l0 -2.546875l1.71875 0l0 2.546875l2.65625 0l0 1.484375l-2.65625 0l0 5.5625q0 0.984375 0.359375 1.34375q0.375 0.359375 1.265625 0.359375l1.046875 0zm1.7713013 -11.75q0 -0.46875 0.3125 -0.75q0.328125 -0.296875 0.84375 -0.296875q0.53125 0 0.84375 0.296875q0.3125 0.28125 0.3125 0.75q0 0.46875 -0.3125 0.765625q-0.3125 0.28125 -0.84375 0.28125q-0.515625 0 -0.84375 -0.28125q-0.3125 -0.296875 -0.3125 -0.765625zm2.0 3.0l0 10.25l-1.703125 0l0 -10.25l1.703125 0zm18.404602 3.671875q0 1.984375 -0.796875 3.46875q-0.796875 1.484375 -2.359375 2.296875q-1.5625 0.8125 -3.734375 0.8125l-4.1875 0l0 -13.15625l4.1875 0q2.171875 0 3.734375 0.796875q1.5625 0.796875 2.359375 2.28125q0.796875 1.484375 0.796875 3.5zm-7.03125 5.046875q2.578125 0 3.9375 -1.3125q1.359375 -1.328125 1.359375 -3.734375q0 -2.421875 -1.359375 -3.75q-1.34375 -1.328125 -3.9375 -1.328125l-2.34375 0l0 10.125l2.34375 0zm15.157837 -11.75q2.40625 0 3.96875 1.1875q1.5625 1.1875 2.171875 3.234375l-1.796875 0q-0.5 -1.3125 -1.625 -2.078125q-1.125 -0.78125 -2.75 -0.78125q-1.28125 0 -2.296875 0.625q-1.015625 0.625 -1.609375 1.796875q-0.578125 1.15625 -0.578125 2.734375q0 1.546875 0.578125 2.703125q0.59375 1.15625 1.609375 1.78125q1.015625 0.625 2.296875 0.625q1.625 0 2.75 -0.765625q1.125 -0.78125 1.625 -2.09375l1.796875 0q-0.609375 2.0625 -2.171875 3.25q-1.5625 1.171875 -3.96875 1.171875q-1.859375 0 -3.28125 -0.84375q-1.40625 -0.84375 -2.203125 -2.359375q-0.78125 -1.53125 -0.78125 -3.46875q0 -1.96875 0.78125 -3.484375q0.796875 -1.53125 2.203125 -2.375q1.421875 -0.859375 3.28125 -0.859375zm12.717773 6.625q0 3.171875 1.046875 4.953125q1.046875 1.765625 3.625 1.765625q2.5625 0 3.609375 -1.765625q1.0625 -1.78125 1.0625 -4.953125q0 -3.140625 -1.0625 -4.90625q-1.046875 -1.78125 -3.609375 -1.78125q-2.578125 0 -3.625 1.765625q-1.046875 1.765625 -1.046875 4.921875zm7.671875 0q0 1.625 -0.234375 2.71875q-0.234375 1.078125 -0.890625 1.734375q-0.65625 0.65625 -1.875 0.65625q-1.21875 0 -1.875 -0.65625q-0.65625 -0.65625 -0.890625 -1.734375q-0.21875 -1.09375 -0.21875 -2.71875q0 -1.609375 0.21875 -2.6875q0.234375 -1.078125 0.890625 -1.71875q0.65625 -0.65625 1.875 -0.65625q1.21875 0 1.875 0.65625q0.65625 0.640625 0.890625 1.71875q0.234375 1.078125 0.234375 2.6875z" fill-rule="nonzero"/><path fill="#ffffff" d="m944.1045 173.79097l143.74805 0l0 21.669296l-143.74805 0z" fill-rule="evenodd"/><path fill="#000000" d="m996.45966 188.49873l-5.78125 0l-1.09375 3.046875l-1.828125 0l4.859375 -12.90625l1.921875 0l4.859375 12.90625l-1.828125 0l-1.109375 -3.046875zm-0.484375 -1.3125l-2.40625 -6.640625l-2.40625 6.640625l4.8125 0zm11.100403 -8.921875q2.296875 0 3.859375 1.140625q1.5625 1.140625 2.09375 3.09375l-1.78125 0q-0.46875 -1.203125 -1.5625 -1.921875q-1.09375 -0.734375 -2.59375 -0.734375q-1.34375 0 -2.40625 0.625q-1.0625 0.625 -1.671875 1.78125q-0.59375 1.15625 -0.59375 2.734375q0 1.59375 0.609375 2.765625q0.625 1.171875 1.703125 1.796875q1.09375 0.625 2.515625 0.625q1.21875 0 2.21875 -0.515625q1.015625 -0.53125 1.65625 -1.53125q0.640625 -1.0 0.765625 -2.34375l-5.15625 0l0 -1.265625l6.59375 0l0 1.5625q-0.171875 1.5625 -0.96875 2.84375q-0.796875 1.265625 -2.171875 2.015625q-1.359375 0.734375 -3.09375 0.734375q-1.890625 0 -3.359375 -0.84375q-1.453125 -0.84375 -2.265625 -2.359375q-0.796875 -1.53125 -0.796875 -3.484375q0 -1.96875 0.796875 -3.484375q0.8125 -1.515625 2.265625 -2.375q1.46875 -0.859375 3.34375 -0.859375zm14.373962 0q2.40625 0 3.968689 1.1875q1.5625 1.1875 2.171875 3.234375l-1.796875 0q-0.5 -1.3125 -1.625 -2.078125q-1.124939 -0.78125 -2.749939 -0.78125q-1.28125 0 -2.296875 0.625q-1.015625 0.625 -1.609375 1.796875q-0.578125 1.15625 -0.578125 2.734375q0 1.546875 0.578125 2.703125q0.59375 1.15625 1.609375 1.78125q1.015625 0.625 2.296875 0.625q1.625 0 2.749939 -0.765625q1.125 -0.78125 1.625 -2.09375l1.796875 0q-0.609375 2.0625 -2.171875 3.25q-1.562439 1.171875 -3.968689 1.171875q-1.859375 0 -3.28125 -0.84375q-1.40625 -0.84375 -2.203125 -2.359375q-0.78125 -1.53125 -0.78125 -3.46875q0 -1.96875 0.78125 -3.484375q0.796875 -1.53125 2.203125 -2.375q1.421875 -0.859375 3.28125 -0.859375zm12.717834 6.625q0 3.171875 1.046875 4.953125q1.046875 1.765625 3.625 1.765625q2.5625 0 3.609375 -1.765625q1.0625 -1.78125 1.0625 -4.953125q0 -3.140625 -1.0625 -4.90625q-1.046875 -1.78125 -3.609375 -1.78125q-2.578125 0 -3.625 1.765625q-1.046875 1.765625 -1.046875 4.921875zm7.671875 0q0 1.625 -0.234375 2.71875q-0.234375 1.078125 -0.890625 1.734375q-0.65625 0.65625 -1.875 0.65625q-1.21875 0 -1.875 -0.65625q-0.65625 -0.65625 -0.890625 -1.734375q-0.21875 -1.09375 -0.21875 -2.71875q0 -1.609375 0.21875 -2.6875q0.234375 -1.078125 0.890625 -1.71875q0.65625 -0.65625 1.875 -0.65625q1.21875 0 1.875 0.65625q0.65625 0.640625 0.890625 1.71875q0.234375 1.078125 0.234375 2.6875z" fill-rule="nonzero"/><path fill="#ffffff" d="m944.1117 413.12277l143.74805 0l0 21.669281l-143.74805 0z" fill-rule="evenodd"/><path fill="#000000" d="m999.5171 427.83054l-5.78125 0l-1.09375 3.046875l-1.828125 0l4.859375 -12.90625l1.921875 0l4.859375 12.90625l-1.828125 0l-1.109375 -3.046875zm-0.484375 -1.3125l-2.40625 -6.640625l-2.40625 6.640625l4.8125 0zm11.100464 -8.921875q2.296875 0 3.859375 1.140625q1.5625 1.140625 2.09375 3.09375l-1.78125 0q-0.46875 -1.203125 -1.5625 -1.921875q-1.09375 -0.734375 -2.59375 -0.734375q-1.34375 0 -2.40625 0.625q-1.0625 0.625 -1.671875 1.78125q-0.59375 1.15625 -0.59375 2.734375q0 1.59375 0.609375 2.765625q0.625 1.171875 1.703125 1.796875q1.09375 0.625 2.515625 0.625q1.21875 0 2.21875 -0.515625q1.015625 -0.53125 1.65625 -1.53125q0.640625 -1.0 0.765625 -2.34375l-5.15625 0l0 -1.265625l6.59375 0l0 1.5625q-0.171875 1.5625 -0.96875 2.84375q-0.796875 1.265625 -2.171875 2.015625q-1.359375 0.734375 -3.09375 0.734375q-1.890625 0 -3.359375 -0.84375q-1.453125 -0.84375 -2.265625 -2.359375q-0.796875 -1.53125 -0.796875 -3.484375q0 -1.96875 0.796875 -3.484375q0.8125 -1.515625 2.265625 -2.375q1.46875 -0.859375 3.34375 -0.859375zm14.373901 0q2.40625 0 3.96875 1.1875q1.5625 1.1875 2.171875 3.234375l-1.796875 0q-0.5 -1.3125 -1.625 -2.078125q-1.125 -0.78125 -2.75 -0.78125q-1.281189 0 -2.296814 0.625q-1.015625 0.625 -1.609375 1.796875q-0.578125 1.15625 -0.578125 2.734375q0 1.546875 0.578125 2.703125q0.59375 1.15625 1.609375 1.78125q1.015625 0.625 2.296814 0.625q1.625 0 2.75 -0.765625q1.125 -0.78125 1.625 -2.09375l1.796875 0q-0.609375 2.0625 -2.171875 3.25q-1.5625 1.171875 -3.96875 1.171875q-1.859314 0 -3.281189 -0.84375q-1.40625 -0.84375 -2.203125 -2.359375q-0.78125 -1.53125 -0.78125 -3.46875q0 -1.96875 0.78125 -3.484375q0.796875 -1.53125 2.203125 -2.375q1.421875 -0.859375 3.281189 -0.859375zm11.9053955 1.71875l0 -1.59375l3.765625 0l0 13.15625l-1.796875 0l0 -11.5625l-1.96875 0z" fill-rule="nonzero"/><path fill="#ffffff" d="m1272.248 175.39238l143.74805 0l0 21.669296l-143.74805 0z" fill-rule="evenodd"/><path fill="#000000" d="m1328.8102 190.10014l-5.78125 0l-1.09375 3.046875l-1.828125 0l4.859375 -12.90625l1.921875 0l4.859375 12.90625l-1.828125 0l-1.109375 -3.046875zm-0.484375 -1.3125l-2.40625 -6.640625l-2.40625 6.640625l4.8125 0zm10.662964 -13.21875l-5.125 20.765625l-1.640625 0l5.09375 -20.765625l1.671875 0zm12.505615 11.0q0 1.984375 -0.796875 3.46875q-0.796875 1.484375 -2.359375 2.296875q-1.5625 0.8125 -3.734375 0.8125l-4.1875 0l0 -13.15625l4.1875 0q2.171875 0 3.734375 0.796875q1.5625 0.796875 2.359375 2.28125q0.796875 1.484375 0.796875 3.5zm-7.03125 5.046875q2.578125 0 3.9375 -1.3125q1.359375 -1.328125 1.359375 -3.734375q0 -2.421875 -1.359375 -3.75q-1.34375 -1.328125 -3.9375 -1.328125l-2.34375 0l0 10.125l2.34375 0zm13.640869 -5.125q0 3.171875 1.046875 4.953125q1.046875 1.765625 3.625 1.765625q2.5625 0 3.609375 -1.765625q1.0625 -1.78125 1.0625 -4.953125q0 -3.140625 -1.0625 -4.90625q-1.046875 -1.78125 -3.609375 -1.78125q-2.578125 0 -3.625 1.765625q-1.046875 1.765625 -1.046875 4.921875zm7.671875 0q0 1.625 -0.234375 2.71875q-0.234375 1.078125 -0.890625 1.734375q-0.65625 0.65625 -1.875 0.65625q-1.21875 0 -1.875 -0.65625q-0.65625 -0.65625 -0.890625 -1.734375q-0.21875 -1.09375 -0.21875 -2.71875q0 -1.609375 0.21875 -2.6875q0.234375 -1.078125 0.890625 -1.71875q0.65625 -0.65625 1.875 -0.65625q1.21875 0 1.875 0.65625q0.65625 0.640625 0.890625 1.71875q0.234375 1.078125 0.234375 2.6875z" fill-rule="nonzero"/><path fill="#ffffff" d="m1272.2408 413.19196l143.74805 0l0 21.669312l-143.74805 0z" fill-rule="evenodd"/><path fill="#000000" d="m1331.8533 427.89972l-5.78125 0l-1.09375 3.046875l-1.828125 0l4.859375 -12.90625l1.921875 0l4.859375 12.90625l-1.828125 0l-1.109375 -3.046875zm-0.484375 -1.3125l-2.40625 -6.640625l-2.40625 6.640625l4.8125 0zm10.662964 -13.21875l-5.125 20.765625l-1.640625 0l5.09375 -20.765625l1.671875 0zm12.505615 11.0q0 1.984375 -0.796875 3.46875q-0.796875 1.484375 -2.359375 2.296875q-1.5625 0.8125 -3.734375 0.8125l-4.1875 0l0 -13.15625l4.1875 0q2.171875 0 3.734375 0.796875q1.5625 0.796875 2.359375 2.28125q0.796875 1.484375 0.796875 3.5zm-7.03125 5.046875q2.578125 0 3.9375 -1.3125q1.359375 -1.328125 1.359375 -3.734375q0 -2.421875 -1.359375 -3.75q-1.34375 -1.328125 -3.9375 -1.328125l-2.34375 0l0 10.125l2.34375 0zm12.828491 -10.03125l0 -1.59375l3.765625 0l0 13.15625l-1.796875 0l0 -11.5625l-1.96875 0z" fill-rule="nonzero"/><path fill="#000000" fill-opacity="0.0" d="m138.08398 360.0l135.68506 0" fill-rule="evenodd"/><path stroke="#000000" stroke-width="4.0" stroke-linejoin="round" stroke-linecap="butt" d="m138.08398 360.0l121.976685 0" fill-rule="evenodd"/><path fill="#000000" stroke="#000000" stroke-width="4.0" stroke-linecap="butt" d="m260.06067 360.0l-4.4983215 4.4983215l12.35907 -4.4983215l-12.35907 -4.4983215z" fill-rule="evenodd"/><path fill="#000000" fill-opacity="0.0" d="m369.48557 223.37534l-327.1181 0l0 88.31494l327.1181 0z" fill-rule="evenodd"/><path fill="#000000" d="m109.86528 263.09534l-2.921875 0l-11.703125 -17.828125l0 17.828125l-2.90625 0l0 -22.5625l2.90625 0l11.703125 17.859375l0 -17.859375l2.921875 0l0 22.5625zm20.833038 -9.765625q0 0.9375 -0.125 1.609375l-14.0625 0q0.109375 3.0 1.71875 4.515625q1.609375 1.5 3.953125 1.5q2.109375 0 3.53125 -1.0625q1.421875 -1.078125 1.75 -2.875l3.109375 0q-0.328125 1.828125 -1.4375 3.265625q-1.09375 1.4375 -2.859375 2.234375q-1.765625 0.796875 -3.96875 0.796875q-2.53125 0 -4.484375 -1.078125q-1.9375 -1.09375 -3.046875 -3.125q-1.109375 -2.03125 -1.109375 -4.78125q0 -2.75 1.109375 -4.796875q1.109375 -2.046875 3.046875 -3.140625q1.953125 -1.09375 4.484375 -1.09375q2.5625 0 4.46875 1.09375q1.90625 1.09375 2.90625 2.921875q1.015625 1.8125 1.015625 4.015625zm-2.953125 0.203125q0.09375 -1.953125 -0.640625 -3.265625q-0.734375 -1.3125 -2.015625 -1.953125q-1.28125 -0.640625 -2.78125 -0.640625q-2.390625 0 -4.03125 1.484375q-1.625 1.484375 -1.765625 4.375l11.234375 0zm30.889923 -8.0l-5.0625 17.5625l-3.140625 0l-4.828125 -14.296875l-4.859375 14.296875l-3.171875 0l-4.984375 -17.5625l2.9375 0l3.75 14.78125l4.859375 -14.78125l3.046875 0l4.890625 14.75l3.78125 -14.75l2.78125 0zm18.3927 -0.234375q3.359375 0 5.5625 1.796875q2.21875 1.796875 2.734375 4.796875l-3.078125 0q-0.3125 -1.890625 -1.75 -2.953125q-1.421875 -1.078125 -3.53125 -1.078125q-1.53125 0 -2.796875 0.703125q-1.265625 0.703125 -2.03125 2.171875q-0.765625 1.453125 -0.765625 3.59375q0 2.140625 0.765625 3.59375q0.765625 1.453125 2.03125 2.171875q1.265625 0.703125 2.796875 0.703125q2.109375 0 3.53125 -1.09375q1.4375 -1.09375 1.75 -2.984375l3.078125 0q-0.515625 3.046875 -2.734375 4.828125q-2.203125 1.765625 -5.5625 1.765625q-2.53125 0 -4.484375 -1.078125q-1.9375 -1.09375 -3.046875 -3.125q-1.109375 -2.03125 -1.109375 -4.78125q0 -2.75 1.109375 -4.796875q1.109375 -2.046875 3.046875 -3.140625q1.953125 -1.09375 4.484375 -1.09375zm20.05954 0q2.53125 0 4.53125 1.09375q2.0 1.09375 3.140625 3.140625q1.140625 2.046875 1.140625 4.796875q0 2.75 -1.140625 4.78125q-1.140625 2.03125 -3.140625 3.125q-2.0 1.078125 -4.53125 1.078125q-2.515625 0 -4.515625 -1.078125q-2.0 -1.09375 -3.15625 -3.125q-1.15625 -2.03125 -1.15625 -4.78125q0 -2.75 1.15625 -4.796875q1.15625 -2.046875 3.15625 -3.140625q2.0 -1.09375 4.515625 -1.09375zm0 2.5625q-1.5625 0 -2.890625 0.703125q-1.328125 0.703125 -2.140625 2.171875q-0.8125 1.453125 -0.8125 3.59375q0 2.109375 0.8125 3.5625q0.8125 1.453125 2.140625 2.15625q1.328125 0.703125 2.890625 0.703125q1.578125 0 2.90625 -0.703125q1.328125 -0.703125 2.140625 -2.15625q0.8125 -1.453125 0.8125 -3.5625q0 -2.140625 -0.8125 -3.59375q-0.8125 -1.46875 -2.140625 -2.171875q-1.328125 -0.703125 -2.90625 -0.703125zm21.85727 -2.625q3.078125 0 4.96875 1.96875q1.890625 1.96875 1.890625 5.6875l0 10.203125l-2.921875 0l0 -9.953125q0 -2.625 -1.34375 -4.03125q-1.34375 -1.40625 -3.640625 -1.40625q-2.40625 0 -3.84375 1.5625q-1.4375 1.546875 -1.4375 4.515625l0 9.3125l-2.90625 0l0 -17.5625l2.90625 0l0 4.15625q0.671875 -2.140625 2.375 -3.296875q1.71875 -1.15625 3.953125 -1.15625zm19.716675 15.296875l0 2.5625l-2.171875 0q-2.6875 0 -4.015625 -1.28125q-1.328125 -1.28125 -1.328125 -4.28125l0 -9.484375l-2.625 0l0 -2.515625l2.625 0l0 -4.390625l2.9375 0l0 4.390625l4.546875 0l0 2.515625l-4.546875 0l0 9.546875q0 1.6875 0.625 2.3125q0.625 0.625 2.15625 0.625l1.796875 0zm10.748505 -15.234375q2.5625 0 4.328125 1.28125q1.78125 1.28125 2.5000153 3.421875l0 -4.46875l2.90625 0l0 17.5625l-2.90625 0l0 -4.484375q-0.71876526 2.140625 -2.5000153 3.421875q-1.765625 1.28125 -4.328125 1.28125q-2.328125 0 -4.15625 -1.078125q-1.828125 -1.09375 -2.875 -3.125q-1.03125 -2.03125 -1.03125 -4.78125q0 -2.75 1.03125 -4.796875q1.046875 -2.046875 2.875 -3.140625q1.828125 -1.09375 4.15625 -1.09375zm0.84375 2.59375q-2.6875 0 -4.3125 1.71875q-1.609375 1.703125 -1.609375 4.71875q0 3.0 1.609375 4.71875q1.625 1.703125 4.3125 1.703125q1.71875 0 3.078125 -0.796875q1.359375 -0.796875 2.125 -2.25q0.78126526 -1.453125 0.78126526 -3.375q0 -1.921875 -0.78126526 -3.390625q-0.765625 -1.46875 -2.125 -2.25q-1.359375 -0.796875 -3.078125 -0.796875zm13.021194 -7.515625q0 -0.796875 0.53125 -1.296875q0.546875 -0.5 1.453125 -0.5q0.890625 0 1.4375 0.5q0.546875 0.5 0.546875 1.296875q0 0.796875 -0.546875 1.296875q-0.546875 0.5 -1.4375 0.5q-0.90625 0 -1.453125 -0.5q-0.53125 -0.5 -0.53125 -1.296875zm3.421875 5.15625l0 17.5625l-2.90625 0l0 -17.5625l2.90625 0zm13.91214 -0.296875q3.078125 0 4.96875 1.96875q1.890625 1.96875 1.890625 5.6875l0 10.203125l-2.921875 0l0 -9.953125q0 -2.625 -1.34375 -4.03125q-1.34375 -1.40625 -3.640625 -1.40625q-2.40625 0 -3.84375 1.5625q-1.4375 1.546875 -1.4375 4.515625l0 9.3125l-2.90625 0l0 -17.5625l2.90625 0l0 4.15625q0.671875 -2.140625 2.375 -3.296875q1.71875 -1.15625 3.953125 -1.15625zm27.497894 8.09375q0 0.9375 -0.125 1.609375l-14.0625 0q0.109375 3.0 1.71875 4.515625q1.609375 1.5 3.953125 1.5q2.109375 0 3.53125 -1.0625q1.421875 -1.078125 1.75 -2.875l3.109375 0q-0.328125 1.828125 -1.4375 3.265625q-1.09375 1.4375 -2.859375 2.234375q-1.765625 0.796875 -3.96875 0.796875q-2.53125 0 -4.484375 -1.078125q-1.9375 -1.09375 -3.046875 -3.125q-1.109375 -2.03125 -1.109375 -4.78125q0 -2.75 1.109375 -4.796875q1.109375 -2.046875 3.046875 -3.140625q1.953125 -1.09375 4.484375 -1.09375q2.5625 0 4.46875 1.09375q1.90625 1.09375 2.90625 2.921875q1.015625 1.8125 1.015625 4.015625zm-2.953125 0.203125q0.09375 -1.953125 -0.640625 -3.265625q-0.734375 -1.3125 -2.015625 -1.953125q-1.28125 -0.640625 -2.78125 -0.640625q-2.390625 0 -4.03125 1.484375q-1.625 1.484375 -1.765625 4.375l11.234375 0zm9.671173 -4.453125q0.859375 -1.828125 2.515625 -2.828125q1.671875 -1.015625 3.984375 -1.015625l0 3.171875l-0.90625 0q-2.453125 0 -4.03125 1.265625q-1.5625 1.265625 -1.5625 4.171875l0 9.25l-2.90625 0l0 -17.5625l2.90625 0l0 3.546875z" fill-rule="nonzero"/><path fill="#000000" fill-opacity="0.0" d="m369.48557 390.11548l-327.1181 0l0 88.31497l327.1181 0z" fill-rule="evenodd"/><path fill="#000000" d="m96.174774 407.05423q4.140625 0 6.828125 2.03125q2.6875 2.03125 3.703125 5.546875l-3.0625 0q-0.875 -2.234375 -2.796875 -3.5625q-1.90625 -1.328125 -4.703125 -1.328125q-2.203125 0 -3.953125 1.078125q-1.734375 1.0625 -2.75 3.0625q-1.0 2.0 -1.0 4.6875q0 2.65625 1.0 4.640625q1.015625 1.984375 2.75 3.0625q1.75 1.0625 3.953125 1.0625q2.796875 0 4.703125 -1.328125q1.921875 -1.328125 2.796875 -3.5625l3.0625 0q-1.015625 3.515625 -3.703125 5.546875q-2.6875 2.03125 -6.828125 2.03125q-3.15625 0 -5.59375 -1.453125q-2.4375 -1.453125 -3.796875 -4.0625q-1.359375 -2.609375 -1.359375 -5.9375q0 -3.359375 1.359375 -5.984375q1.359375 -2.625 3.796875 -4.078125q2.4375 -1.453125 5.59375 -1.453125zm22.400421 4.984375q2.53125 0 4.53125 1.09375q2.0 1.09375 3.140625 3.140625q1.140625 2.046875 1.140625 4.796875q0 2.75 -1.140625 4.78125q-1.140625 2.03125 -3.140625 3.125q-2.0 1.078125 -4.53125 1.078125q-2.515625 0 -4.515625 -1.078125q-2.0 -1.09375 -3.15625 -3.125q-1.15625 -2.03125 -1.15625 -4.78125q0 -2.75 1.15625 -4.796875q1.15625 -2.046875 3.15625 -3.140625q2.0 -1.09375 4.515625 -1.09375zm0 2.5625q-1.5625 0 -2.890625 0.703125q-1.328125 0.703125 -2.140625 2.171875q-0.8125 1.453125 -0.8125 3.59375q0 2.109375 0.8125 3.5625q0.8125 1.453125 2.140625 2.15625q1.328125 0.703125 2.890625 0.703125q1.578125 0 2.90625 -0.703125q1.328125 -0.703125 2.140625 -2.15625q0.8125 -1.453125 0.8125 -3.5625q0 -2.140625 -0.8125 -3.59375q-0.8125 -1.46875 -2.140625 -2.171875q-1.328125 -0.703125 -2.90625 -0.703125zm21.857285 -2.625q3.078125 0 4.96875 1.96875q1.890625 1.96875 1.890625 5.6875l0 10.203125l-2.921875 0l0 -9.953125q0 -2.625 -1.34375 -4.03125q-1.34375 -1.40625 -3.640625 -1.40625q-2.40625 0 -3.84375 1.5625q-1.4375 1.546875 -1.4375 4.515625l0 9.3125l-2.90625 0l0 -17.5625l2.90625 0l0 4.15625q0.671875 -2.140625 2.375 -3.296875q1.71875 -1.15625 3.953125 -1.15625zm20.576035 0q3.078125 0 4.96875 1.96875q1.890625 1.96875 1.890625 5.6875l0 10.203125l-2.921875 0l0 -9.953125q0 -2.625 -1.34375 -4.03125q-1.34375 -1.40625 -3.640625 -1.40625q-2.40625 0 -3.84375 1.5625q-1.4375 1.546875 -1.4375 4.515625l0 9.3125l-2.90625 0l0 -17.5625l2.90625 0l0 4.15625q0.671875 -2.140625 2.375 -3.296875q1.71875 -1.15625 3.953125 -1.15625zm27.49791 8.09375q0 0.9375 -0.125 1.609375l-14.0625 0q0.109375 3.0 1.71875 4.515625q1.609375 1.5 3.953125 1.5q2.109375 0 3.53125 -1.0625q1.421875 -1.078125 1.75 -2.875l3.109375 0q-0.328125 1.828125 -1.4375 3.265625q-1.09375 1.4375 -2.859375 2.234375q-1.765625 0.796875 -3.96875 0.796875q-2.53125 0 -4.484375 -1.078125q-1.9375 -1.09375 -3.046875 -3.125q-1.109375 -2.03125 -1.109375 -4.78125q0 -2.75 1.109375 -4.796875q1.109375 -2.046875 3.046875 -3.140625q1.953125 -1.09375 4.484375 -1.09375q2.5625 0 4.46875 1.09375q1.90625 1.09375 2.90625 2.921875q1.015625 1.8125 1.015625 4.015625zm-2.953125 0.203125q0.09375 -1.953125 -0.640625 -3.265625q-0.734375 -1.3125 -2.015625 -1.953125q-1.28125 -0.640625 -2.78125 -0.640625q-2.390625 0 -4.03125 1.484375q-1.625 1.484375 -1.765625 4.375l11.234375 0zm14.530548 -8.234375q3.359375 0 5.5625 1.796875q2.21875 1.796875 2.734375 4.796875l-3.078125 0q-0.3125 -1.890625 -1.75 -2.953125q-1.421875 -1.078125 -3.53125 -1.078125q-1.53125 0 -2.796875 0.703125q-1.265625 0.703125 -2.03125 2.171875q-0.765625 1.453125 -0.765625 3.59375q0 2.140625 0.765625 3.59375q0.765625 1.453125 2.03125 2.171875q1.265625 0.703125 2.796875 0.703125q2.109375 0 3.53125 -1.09375q1.4375 -1.09375 1.75 -2.984375l3.078125 0q-0.515625 3.046875 -2.734375 4.828125q-2.203125 1.765625 -5.5625 1.765625q-2.53125 0 -4.484375 -1.078125q-1.9375 -1.09375 -3.046875 -3.125q-1.109375 -2.03125 -1.109375 -4.78125q0 -2.75 1.109375 -4.796875q1.109375 -2.046875 3.046875 -3.140625q1.953125 -1.09375 4.484375 -1.09375zm20.481415 15.234375l0 2.5625l-2.171875 0q-2.6875 0 -4.015625 -1.28125q-1.328125 -1.28125 -1.328125 -4.28125l0 -9.484375l-2.625 0l0 -2.515625l2.625 0l0 -4.390625l2.9375 0l0 4.390625l4.546875 0l0 2.515625l-4.546875 0l0 9.546875q0 1.6875 0.625 2.3125q0.625 0.625 2.15625 0.625l1.796875 0zm11.51413 -15.234375q2.53125 0 4.53125 1.09375q2.0 1.09375 3.140625 3.140625q1.140625 2.046875 1.140625 4.796875q0 2.75 -1.140625 4.78125q-1.140625 2.03125 -3.140625 3.125q-2.0 1.078125 -4.53125 1.078125q-2.515625 0 -4.515625 -1.078125q-2.0 -1.09375 -3.15625 -3.125q-1.15625 -2.03125 -1.15625 -4.78125q0 -2.75 1.15625 -4.796875q1.15625 -2.046875 3.15625 -3.140625q2.0 -1.09375 4.515625 -1.09375zm0 2.5625q-1.5625 0 -2.890625 0.703125q-1.328125 0.703125 -2.140625 2.171875q-0.8125 1.453125 -0.8125 3.59375q0 2.109375 0.8125 3.5625q0.8125 1.453125 2.140625 2.15625q1.328125 0.703125 2.890625 0.703125q1.578125 0 2.90625 -0.703125q1.328125 -0.703125 2.140625 -2.15625q0.8125 -1.453125 0.8125 -3.5625q0 -2.140625 -0.8125 -3.59375q-0.8125 -1.46875 -2.140625 -2.171875q-1.328125 -0.703125 -2.90625 -0.703125zm15.529175 1.21875q0.859375 -1.828125 2.515625 -2.828125q1.671875 -1.015625 3.984375 -1.015625l0 3.171875l-0.90625 0q-2.453125 0 -4.03125 1.265625q-1.5625 1.265625 -1.5625 4.171875l0 9.25l-2.90625 0l0 -17.5625l2.90625 0l0 3.546875zm31.098312 -8.546875l0 2.375l-6.359375 0l0 20.1875l-2.921875 0l0 -20.1875l-6.359375 0l0 -2.375l15.640625 0zm10.844666 4.765625q2.53125 0 4.53125 1.09375q2.0 1.09375 3.140625 3.140625q1.140625 2.046875 1.140625 4.796875q0 2.75 -1.140625 4.78125q-1.140625 2.03125 -3.140625 3.125q-2.0 1.078125 -4.53125 1.078125q-2.515625 0 -4.515625 -1.078125q-2.0 -1.09375 -3.15625 -3.125q-1.15625 -2.03125 -1.15625 -4.78125q0 -2.75 1.15625 -4.796875q1.15625 -2.046875 3.15625 -3.140625q2.0 -1.09375 4.515625 -1.09375zm0 2.5625q-1.5625 0 -2.890625 0.703125q-1.328125 0.703125 -2.140625 2.171875q-0.8125 1.453125 -0.8125 3.59375q0 2.109375 0.8125 3.5625q0.8125 1.453125 2.140625 2.15625q1.328125 0.703125 2.890625 0.703125q1.578125 0 2.90625 -0.703125q1.328125 -0.703125 2.140625 -2.15625q0.8125 -1.453125 0.8125 -3.5625q0 -2.140625 -0.8125 -3.59375q-0.8125 -1.46875 -2.140625 -2.171875q-1.328125 -0.703125 -2.90625 -0.703125zm20.57602 -2.5625q2.53125 0 4.53125 1.09375q2.0 1.09375 3.140625 3.140625q1.140625 2.046875 1.140625 4.796875q0 2.75 -1.140625 4.78125q-1.140625 2.03125 -3.140625 3.125q-2.0 1.078125 -4.53125 1.078125q-2.515625 0 -4.515625 -1.078125q-2.0 -1.09375 -3.15625 -3.125q-1.15625 -2.03125 -1.15625 -4.78125q0 -2.75 1.15625 -4.796875q1.15625 -2.046875 3.15625 -3.140625q2.0 -1.09375 4.515625 -1.09375zm0 2.5625q-1.5625 0 -2.890625 0.703125q-1.328125 0.703125 -2.140625 2.171875q-0.8125 1.453125 -0.8125 3.59375q0 2.109375 0.8125 3.5625q0.8125 1.453125 2.140625 2.15625q1.328125 0.703125 2.890625 0.703125q1.578125 0 2.90625 -0.703125q1.328125 -0.703125 2.140625 -2.15625q0.8125 -1.453125 0.8125 -3.5625q0 -2.140625 -0.8125 -3.59375q-0.8125 -1.46875 -2.140625 -2.171875q-1.328125 -0.703125 -2.90625 -0.703125zm15.529175 -8.453125l0 23.6875l-2.90625 0l0 -23.6875l2.90625 0z" fill-rule="nonzero"/><path fill="#000000" fill-opacity="0.0" d="m1522.8451 25.658792l-327.11804 0l0 88.314964l327.11804 0z" fill-rule="evenodd"/><path fill="#000000" d="m1267.7698 55.37067l4.078125 -10.84375l2.359375 0l-5.15625 13.171875l-2.59375 0l-5.15625 -13.171875l2.34375 0l4.125 10.84375zm8.195557 -14.71875q0 -0.59375 0.40625 -0.96875q0.40625 -0.375 1.078125 -0.375q0.671875 0 1.078125 0.375q0.40625 0.375 0.40625 0.96875q0 0.609375 -0.40625 0.984375q-0.40625 0.359375 -1.078125 0.359375q-0.671875 0 -1.078125 -0.359375q-0.40625 -0.375 -0.40625 -0.984375zm2.5625 3.875l0 13.171875l-2.1875 0l0 -13.171875l2.1875 0zm5.6879883 2.65625q0.640625 -1.359375 1.890625 -2.109375q1.25 -0.765625 2.984375 -0.765625l0 2.375l-0.671875 0q-1.859375 0 -3.03125 0.953125q-1.171875 0.9375 -1.171875 3.125l0 6.9375l-2.1875 0l0 -13.171875l2.1875 0l0 2.65625zm13.325317 8.59375l0 1.921875l-1.640625 0q-2.015625 0 -3.015625 -0.953125q-0.984375 -0.96875 -0.984375 -3.21875l0 -7.109375l-1.96875 0l0 -1.890625l1.96875 0l0 -3.296875l2.203125 0l0 3.296875l3.40625 0l0 1.890625l-3.40625 0l0 7.15625q0 1.265625 0.46875 1.734375q0.46875 0.46875 1.625 0.46875l1.34375 0zm14.373901 -11.25l0 13.171875l-2.1875 0l0 -3.09375q-0.5 1.609375 -1.796875 2.46875q-1.28125 0.84375 -2.984375 0.84375q-2.28125 0 -3.703125 -1.46875q-1.40625 -1.484375 -1.40625 -4.25l0 -7.671875l2.1875 0l0 7.453125q0 1.96875 1.0 3.046875q1.015625 1.0625 2.734375 1.0625q1.8125 0 2.890625 -1.15625q1.078125 -1.171875 1.078125 -3.40625l0 -7.0l2.1875 0zm8.903442 -0.171875q1.921875 0 3.25 0.96875q1.328125 0.953125 1.859375 2.5625l0 -3.359375l2.1875 0l0 13.171875l-2.1875 0l0 -3.359375q-0.53125 1.609375 -1.859375 2.578125q-1.328125 0.953125 -3.25 0.953125q-1.75 0 -3.125 -0.8125q-1.375 -0.828125 -2.15625 -2.34375q-0.765625 -1.53125 -0.765625 -3.59375q0 -2.0625 0.765625 -3.59375q0.78125 -1.546875 2.15625 -2.359375q1.375 -0.8125 3.125 -0.8125zm0.625 1.9375q-2.015625 0 -3.234375 1.296875q-1.203125 1.28125 -1.203125 3.53125q0 2.265625 1.203125 3.546875q1.21875 1.28125 3.234375 1.28125q1.296875 0 2.3125 -0.59375q1.015625 -0.609375 1.59375 -1.703125q0.578125 -1.09375 0.578125 -2.53125q0 -1.4375 -0.578125 -2.53125q-0.578125 -1.109375 -1.59375 -1.703125q-1.015625 -0.59375 -2.3125 -0.59375zm12.332153 -6.359375l0 17.765625l-2.1875 0l0 -17.765625l2.1875 0zm15.256592 4.421875q2.53125 0 4.1875 1.34375q1.65625 1.34375 2.03125 3.59375l-2.296875 0q-0.25 -1.40625 -1.3125 -2.203125q-1.0625 -0.8125 -2.65625 -0.8125q-1.140625 0 -2.09375 0.53125q-0.953125 0.515625 -1.53125 1.609375q-0.5625 1.09375 -0.5625 2.703125q0 1.609375 0.5625 2.703125q0.578125 1.09375 1.53125 1.625q0.953125 0.515625 2.09375 0.515625q1.59375 0 2.65625 -0.8125q1.0625 -0.8125 1.3125 -2.234375l2.296875 0q-0.375 2.28125 -2.03125 3.625q-1.65625 1.328125 -4.1875 1.328125q-1.890625 0 -3.359375 -0.8125q-1.453125 -0.828125 -2.28125 -2.34375q-0.828125 -1.53125 -0.828125 -3.59375q0 -2.0625 0.828125 -3.59375q0.828125 -1.546875 2.28125 -2.359375q1.46875 -0.8125 3.359375 -0.8125zm15.060181 0q1.890625 0 3.390625 0.8125q1.5 0.8125 2.34375 2.359375q0.859375 1.53125 0.859375 3.59375q0 2.0625 -0.859375 3.59375q-0.84375 1.515625 -2.34375 2.34375q-1.5 0.8125 -3.390625 0.8125q-1.90625 0 -3.40625 -0.8125q-1.5 -0.828125 -2.359375 -2.34375q-0.859375 -1.53125 -0.859375 -3.59375q0 -2.0625 0.859375 -3.59375q0.859375 -1.546875 2.359375 -2.359375q1.5 -0.8125 3.40625 -0.8125zm0 1.921875q-1.1875 0 -2.1875 0.53125q-0.984375 0.515625 -1.59375 1.609375q-0.609375 1.09375 -0.609375 2.703125q0 1.59375 0.609375 2.6875q0.609375 1.078125 1.59375 1.609375q1.0 0.53125 2.1875 0.53125q1.171875 0 2.15625 -0.53125q1.0 -0.53125 1.609375 -1.609375q0.625 -1.09375 0.625 -2.6875q0 -1.609375 -0.625 -2.703125q-0.609375 -1.09375 -1.609375 -1.609375q-0.984375 -0.53125 -2.15625 -0.53125zm16.385132 -1.96875q2.296875 0 3.71875 1.484375q1.421875 1.46875 1.421875 4.25l0 7.65625l-2.1875 0l0 -7.46875q0 -1.96875 -1.015625 -3.015625q-1.0 -1.0625 -2.734375 -1.0625q-1.796875 0 -2.875 1.171875q-1.078125 1.15625 -1.078125 3.390625l0 6.984375l-2.1875 0l0 -13.171875l2.1875 0l0 3.109375q0.5 -1.59375 1.78125 -2.453125q1.296875 -0.875 2.96875 -0.875zm14.791382 11.46875l0 1.921875l-1.640625 0q-2.015625 0 -3.015625 -0.953125q-0.984375 -0.96875 -0.984375 -3.21875l0 -7.109375l-1.96875 0l0 -1.890625l1.96875 0l0 -3.296875l2.203125 0l0 3.296875l3.40625 0l0 1.890625l-3.40625 0l0 7.15625q0 1.265625 0.46875 1.734375q0.46875 0.46875 1.625 0.46875l1.34375 0zm8.061279 -11.421875q1.921875 0 3.25 0.96875q1.328125 0.953125 1.859375 2.5625l0 -3.359375l2.1875 0l0 13.171875l-2.1875 0l0 -3.359375q-0.53125 1.609375 -1.859375 2.578125q-1.328125 0.953125 -3.25 0.953125q-1.75 0 -3.125 -0.8125q-1.375 -0.828125 -2.15625 -2.34375q-0.765625 -1.53125 -0.765625 -3.59375q0 -2.0625 0.765625 -3.59375q0.78125 -1.546875 2.15625 -2.359375q1.375 -0.8125 3.125 -0.8125zm0.625 1.9375q-2.015625 0 -3.234375 1.296875q-1.203125 1.28125 -1.203125 3.53125q0 2.265625 1.203125 3.546875q1.21875 1.28125 3.234375 1.28125q1.296875 0 2.3125 -0.59375q1.015625 -0.609375 1.59375 -1.703125q0.578125 -1.09375 0.578125 -2.53125q0 -1.4375 -0.578125 -2.53125q-0.578125 -1.109375 -1.59375 -1.703125q-1.015625 -0.59375 -2.3125 -0.59375zm9.769775 -5.640625q0 -0.59375 0.40625 -0.96875q0.40625 -0.375 1.078125 -0.375q0.671875 0 1.078125 0.375q0.40625 0.375 0.40625 0.96875q0 0.609375 -0.40625 0.984375q-0.40625 0.359375 -1.078125 0.359375q-0.671875 0 -1.078125 -0.359375q-0.40625 -0.375 -0.40625 -0.984375zm2.5625 3.875l0 13.171875l-2.1875 0l0 -13.171875l2.1875 0zm10.437988 -0.21875q2.296875 0 3.71875 1.484375q1.421875 1.46875 1.421875 4.25l0 7.65625l-2.1875 0l0 -7.46875q0 -1.96875 -1.015625 -3.015625q-1.0 -1.0625 -2.734375 -1.0625q-1.796875 0 -2.875 1.171875q-1.078125 1.15625 -1.078125 3.390625l0 6.984375l-2.1875 0l0 -13.171875l2.1875 0l0 3.109375q0.5 -1.59375 1.78125 -2.453125q1.296875 -0.875 2.96875 -0.875zm20.619385 6.078125q0 0.6875 -0.09375 1.1875l-10.546875 0q0.078125 2.265625 1.28125 3.390625q1.21875 1.125 2.96875 1.125q1.59375 0 2.65625 -0.796875q1.0625 -0.8125 1.3125 -2.15625l2.328125 0q-0.25 1.375 -1.078125 2.453125q-0.828125 1.078125 -2.15625 1.6875q-1.3125 0.59375 -2.96875 0.59375q-1.890625 0 -3.359375 -0.8125q-1.453125 -0.828125 -2.28125 -2.34375q-0.828125 -1.53125 -0.828125 -3.59375q0 -2.0625 0.828125 -3.59375q0.828125 -1.546875 2.28125 -2.359375q1.46875 -0.8125 3.359375 -0.8125q1.921875 0 3.34375 0.8125q1.4375 0.8125 2.1875 2.1875q0.765625 1.375 0.765625 3.03125zm-2.21875 0.140625q0.078125 -1.46875 -0.484375 -2.453125q-0.546875 -0.984375 -1.5 -1.453125q-0.953125 -0.484375 -2.09375 -0.484375q-1.796875 0 -3.015625 1.109375q-1.21875 1.109375 -1.328125 3.28125l8.421875 0zm7.257202 -3.34375q0.640625 -1.359375 1.890625 -2.109375q1.25 -0.765625 2.984375 -0.765625l0 2.375l-0.671875 0q-1.859375 0 -3.03125 0.953125q-1.171875 0.9375 -1.171875 3.125l0 6.9375l-2.1875 0l0 -13.171875l2.1875 0l0 2.65625z" fill-rule="nonzero"/></g></svg>