<svg version="1.1" viewBox="0.0 0.0 791.6010498687664 187.501312335958" fill="none" stroke="none" stroke-linecap="square" stroke-miterlimit="10" xmlns:xlink="http://www.w3.org/1999/xlink" xmlns="http://www.w3.org/2000/svg"><clipPath id="p.0"><path d="m0 0l791.6011 0l0 187.50131l-791.6011 0l0 -187.50131z" clip-rule="nonzero"/></clipPath><g clip-path="url(#p.0)"><path fill="#000000" fill-opacity="0.0" d="m0 0l791.6011 0l0 187.50131l-791.6011 0z" fill-rule="evenodd"/><path fill="#ffffff" d="m212.39922 47.562202l0 0c0 -14.411877 11.683136 -26.09501 26.095016 -26.09501l522.3612 0c6.9208374 0 13.5581665 2.7492886 18.451965 7.643051c4.893738 4.8937626 7.6430054 11.531134 7.6430054 18.45196l0 104.376915c0 14.411865 -11.683105 26.095001 -26.09497 26.095001l-522.3612 0c-14.4118805 0 -26.095016 -11.683136 -26.095016 -26.095001z" fill-rule="evenodd"/><path fill="#000000" fill-opacity="0.0" d="m435.1414 95.18235l32.012848 -64.02567l94.55267 0l32.012817 64.02567l-32.012817 64.02567l-94.55267 0z" fill-rule="evenodd"/><path stroke="#6d9eeb" stroke-width="2.0" stroke-linejoin="round" stroke-linecap="butt" d="m435.1414 95.18235l32.012848 -64.02567l94.55267 0l32.012817 64.02567l-32.012817 64.02567l-94.55267 0z" fill-rule="evenodd"/><path fill="#000000" fill-opacity="0.0" d="m467.15424 159.20802l94.561035 -128.0514" fill-rule="evenodd"/><path stroke="#6d9eeb" stroke-width="2.0" stroke-linejoin="round" stroke-linecap="butt" d="m467.15424 159.20802l94.561035 -128.0514" fill-rule="evenodd"/><path fill="#000000" fill-opacity="0.0" d="m513.77386 95.39922l79.94586 -0.21687317" fill-rule="evenodd"/><path stroke="#6d9eeb" stroke-width="2.0" stroke-linejoin="round" stroke-linecap="butt" d="m513.77386 95.39922l79.94586 -0.21687317" fill-rule="evenodd"/><path fill="#000000" fill-opacity="0.0" d="m397.2759 95.18389l-50.519684 0" fill-rule="evenodd"/><path stroke="#6d9eeb" stroke-width="1.0" stroke-linejoin="round" stroke-linecap="butt" d="m393.84885 95.18389l-47.09262 0" fill-rule="evenodd"/><path fill="#6d9eeb" stroke="#6d9eeb" stroke-width="1.0" stroke-linecap="butt" d="m393.84885 95.18389l-1.1246033 1.1245804l3.0897827 -1.1245804l-3.0897827 -1.1245804z" fill-rule="evenodd"/><path fill="#000000" fill-opacity="0.0" d="m212.3989 50.20691l138.89764 0l0 89.95276l-138.89764 0z" fill-rule="evenodd"/><path fill="#0b5394" d="m226.93015 76.86128q-0.0625 0.09375 -0.140625 0.15625q-0.0625 0.0625 -0.1875 0.109375q-0.109375 0.03125 -0.296875 0.03125q-0.171875 0.015625 -0.453125 0.015625q-0.296875 0 -0.484375 -0.015625q-0.1875 0 -0.296875 -0.03125q-0.109375 -0.046875 -0.15625 -0.109375q-0.046875 -0.078125 -0.0625 -0.171875l-1.671875 -11.03125q-0.015625 -0.171875 -0.015625 -0.28125q0 -0.109375 0.078125 -0.15625q0.078125 -0.0625 0.234375 -0.078125q0.15625 -0.015625 0.4375 -0.015625q0.28125 0 0.4375 0.015625q0.15625 0.015625 0.25 0.0625q0.09375 0.03125 0.125 0.09375q0.03125 0.0625 0.046875 0.140625l1.375 9.921875l0.015625 0l5.25 -9.921875q0.046875 -0.09375 0.109375 -0.140625q0.0625 -0.0625 0.15625 -0.09375q0.109375 -0.046875 0.265625 -0.0625q0.171875 -0.015625 0.453125 -0.015625q0.28125 0 0.4375 0.03125q0.171875 0.015625 0.234375 0.078125q0.0625 0.0625 0.03125 0.1875q-0.03125 0.125 -0.140625 0.328125l-6.03125 10.953125zm9.507111 -10.921875q-0.046875 0.25 -0.125 0.4375q-0.078125 0.171875 -0.203125 0.28125q-0.125 0.09375 -0.328125 0.140625q-0.1875 0.046875 -0.453125 0.046875q-0.265625 0 -0.4375 -0.046875q-0.171875 -0.046875 -0.265625 -0.140625q-0.078125 -0.109375 -0.09375 -0.28125q0 -0.1875 0.046875 -0.4375q0.0625 -0.25 0.140625 -0.421875q0.078125 -0.171875 0.203125 -0.28125q0.125 -0.109375 0.3125 -0.15625q0.1875 -0.046875 0.46875 -0.046875q0.265625 0 0.421875 0.046875q0.171875 0.046875 0.25 0.15625q0.09375 0.109375 0.109375 0.28125q0.015625 0.171875 -0.046875 0.421875zm-2.359375 10.953125q-0.015625 0.078125 -0.0625 0.140625q-0.046875 0.046875 -0.140625 0.078125q-0.09375 0.03125 -0.25 0.046875q-0.140625 0.015625 -0.359375 0.015625q-0.21875 0 -0.359375 -0.015625q-0.140625 -0.015625 -0.21875 -0.046875q-0.078125 -0.03125 -0.109375 -0.078125q-0.015625 -0.0625 0 -0.140625l1.625 -8.1875q0.015625 -0.0625 0.0625 -0.109375q0.046875 -0.0625 0.125 -0.09375q0.09375 -0.046875 0.25 -0.0625q0.15625 -0.015625 0.375 -0.015625q0.21875 0 0.359375 0.015625q0.140625 0.015625 0.21875 0.0625q0.078125 0.03125 0.09375 0.09375q0.03125 0.046875 0.015625 0.109375l-1.625 8.1875zm10.781464 -6.375q0 0.3125 -0.03125 0.625q-0.03125 0.3125 -0.09375 0.640625l-1.03125 5.109375q-0.015625 0.078125 -0.0625 0.140625q-0.046875 0.046875 -0.140625 0.078125q-0.09375 0.03125 -0.25 0.046875q-0.140625 0.015625 -0.359375 0.015625q-0.21875 0 -0.359375 -0.015625q-0.140625 -0.015625 -0.21875 -0.046875q-0.078125 -0.03125 -0.109375 -0.078125q-0.015625 -0.0625 0 -0.140625l1.0 -5.0625q0.0625 -0.28125 0.078125 -0.546875q0.03125 -0.265625 0.03125 -0.453125q0 -0.5625 -0.234375 -0.90625q-0.234375 -0.34375 -0.796875 -0.34375q-0.484375 0 -0.984375 0.28125q-0.5 0.28125 -0.9375 0.765625q-0.4375 0.484375 -0.78125 1.15625q-0.328125 0.671875 -0.484375 1.453125l-0.734375 3.65625q-0.015625 0.078125 -0.0625 0.140625q-0.046875 0.046875 -0.140625 0.078125q-0.09375 0.03125 -0.25 0.046875q-0.140625 0.015625 -0.359375 0.015625q-0.21875 0 -0.359375 -0.015625q-0.140625 -0.015625 -0.21875 -0.046875q-0.078125 -0.03125 -0.109375 -0.078125q-0.015625 -0.0625 0 -0.140625l1.640625 -8.203125q0.015625 -0.0625 0.046875 -0.109375q0.046875 -0.0625 0.125 -0.09375q0.09375 -0.046875 0.21875 -0.046875q0.140625 -0.015625 0.328125 -0.015625q0.1875 0 0.3125 0.015625q0.125 0 0.1875 0.046875q0.078125 0.03125 0.09375 0.09375q0.015625 0.046875 0 0.109375l-0.296875 1.5625q0.125 -0.296875 0.4375 -0.640625q0.3125 -0.359375 0.734375 -0.640625q0.4375 -0.296875 0.953125 -0.484375q0.515625 -0.203125 1.0625 -0.203125q0.609375 0 1.015625 0.1875q0.421875 0.1875 0.671875 0.5q0.25 0.296875 0.359375 0.703125q0.109375 0.40625 0.109375 0.84375zm20.182892 -5.875q0 0.046875 -0.015625 0.140625q-0.015625 0.078125 -0.03125 0.171875q-0.015625 0.078125 -0.046875 0.1875q-0.03125 0.09375 -0.078125 0.171875q-0.046875 0.078125 -0.109375 0.125q-0.0625 0.046875 -0.125 0.046875l-1.484375 0l-2.6875 13.453125l1.484375 0q0.09375 0 0.125 0.0625q0.046875 0.078125 0.046875 0.1875q0 0.0625 -0.015625 0.140625q0 0.09375 -0.03125 0.1875q-0.015625 0.09375 -0.046875 0.1875q-0.03125 0.09375 -0.078125 0.171875q-0.046875 0.078125 -0.109375 0.125q-0.046875 0.046875 -0.125 0.046875l-2.328125 0q-0.109375 0 -0.203125 -0.046875q-0.09375 -0.03125 -0.15625 -0.109375q-0.0625 -0.0625 -0.09375 -0.1875q-0.03125 -0.125 0.015625 -0.296875l2.875 -14.390625q0.0625 -0.359375 0.28125 -0.5q0.21875 -0.140625 0.4375 -0.140625l2.3125 0q0.1875 0 0.1875 0.265625zm11.783264 12.25q0 0.078125 -0.046875 0.140625q-0.046875 0.046875 -0.140625 0.078125q-0.09375 0.03125 -0.25 0.046875q-0.15625 0.015625 -0.375 0.015625q-0.21875 0 -0.359375 -0.015625q-0.140625 -0.015625 -0.21875 -0.046875q-0.078125 -0.03125 -0.109375 -0.078125q-0.015625 -0.0625 0 -0.140625l1.015625 -5.0625q0.046875 -0.265625 0.078125 -0.5q0.03125 -0.234375 0.03125 -0.46875q0 -0.578125 -0.234375 -0.921875q-0.21875 -0.359375 -0.765625 -0.359375q-0.453125 0 -0.953125 0.28125q-0.484375 0.28125 -0.921875 0.765625q-0.4375 0.484375 -0.78125 1.15625q-0.328125 0.671875 -0.484375 1.453125l-0.734375 3.65625q-0.015625 0.078125 -0.0625 0.140625q-0.046875 0.046875 -0.140625 0.078125q-0.09375 0.03125 -0.25 0.046875q-0.140625 0.015625 -0.359375 0.015625q-0.21875 0 -0.359375 -0.015625q-0.140625 -0.015625 -0.21875 -0.046875q-0.0625 -0.03125 -0.09375 -0.078125q-0.03125 -0.0625 -0.015625 -0.140625l1.0 -5.0625q0.078125 -0.265625 0.09375 -0.53125q0.015625 -0.265625 0.015625 -0.5q0 -0.546875 -0.234375 -0.875q-0.21875 -0.34375 -0.765625 -0.34375q-0.453125 0 -0.9375 0.28125q-0.484375 0.28125 -0.921875 0.765625q-0.4375 0.484375 -0.78125 1.15625q-0.328125 0.671875 -0.484375 1.453125l-0.734375 3.65625q-0.015625 0.078125 -0.0625 0.140625q-0.046875 0.046875 -0.140625 0.078125q-0.09375 0.03125 -0.25 0.046875q-0.140625 0.015625 -0.359375 0.015625q-0.21875 0 -0.359375 -0.015625q-0.140625 -0.015625 -0.21875 -0.046875q-0.078125 -0.03125 -0.109375 -0.078125q-0.015625 -0.0625 0 -0.140625l1.640625 -8.203125q0.015625 -0.0625 0.046875 -0.109375q0.046875 -0.0625 0.125 -0.09375q0.09375 -0.046875 0.21875 -0.046875q0.140625 -0.015625 0.328125 -0.015625q0.1875 0 0.3125 0.015625q0.125 0 0.1875 0.046875q0.078125 0.03125 0.09375 0.09375q0.015625 0.046875 0 0.109375l-0.296875 1.5625q0.125 -0.296875 0.4375 -0.640625q0.328125 -0.359375 0.734375 -0.640625q0.421875 -0.296875 0.921875 -0.484375q0.5 -0.203125 1.015625 -0.203125q0.546875 0 0.9375 0.15625q0.390625 0.15625 0.640625 0.421875q0.25 0.25 0.359375 0.609375q0.125 0.359375 0.15625 0.78125q0.1875 -0.3125 0.5 -0.65625q0.328125 -0.34375 0.734375 -0.625q0.421875 -0.296875 0.90625 -0.484375q0.5 -0.203125 1.015625 -0.203125q0.609375 0 1.015625 0.1875q0.40625 0.171875 0.65625 0.46875q0.265625 0.296875 0.375 0.703125q0.109375 0.390625 0.109375 0.875q0 0.3125 -0.046875 0.625q-0.03125 0.3125 -0.09375 0.640625l-1.03125 5.109375zm7.6948853 -0.03125q-0.0625 0.09375 -0.140625 0.15625q-0.0625 0.0625 -0.1875 0.109375q-0.109375 0.03125 -0.296875 0.03125q-0.171875 0.015625 -0.453125 0.015625q-0.296875 0 -0.484375 -0.015625q-0.1875 0 -0.296875 -0.03125q-0.109375 -0.046875 -0.15625 -0.109375q-0.046875 -0.078125 -0.0625 -0.171875l-1.671875 -11.03125q-0.015625 -0.171875 -0.015625 -0.28125q0 -0.109375 0.078125 -0.15625q0.078125 -0.0625 0.234375 -0.078125q0.15625 -0.015625 0.4375 -0.015625q0.28125 0 0.4375 0.015625q0.15625 0.015625 0.25 0.0625q0.09375 0.03125 0.125 0.09375q0.03125 0.0625 0.046875 0.140625l1.375 9.921875l0.015625 0l5.25 -9.921875q0.046875 -0.09375 0.109375 -0.140625q0.0625 -0.0625 0.15625 -0.09375q0.109375 -0.046875 0.265625 -0.0625q0.171875 -0.015625 0.453125 -0.015625q0.28125 0 0.4375 0.03125q0.171875 0.015625 0.234375 0.078125q0.0625 0.0625 0.03125 0.1875q-0.03125 0.125 -0.140625 0.328125l-6.03125 10.953125zm7.7258606 2.546875q-0.0625 0.359375 -0.28125 0.5q-0.203125 0.140625 -0.40625 0.140625l-2.34375 0q-0.078125 0 -0.125 -0.078125q-0.046875 -0.0625 -0.046875 -0.1875q0 -0.0625 0.015625 -0.140625q0 -0.078125 0.015625 -0.171875q0.015625 -0.09375 0.0625 -0.1875q0.03125 -0.09375 0.078125 -0.171875q0.046875 -0.078125 0.109375 -0.125q0.046875 -0.046875 0.125 -0.046875l1.46875 0l2.6875 -13.453125l-1.46875 0q-0.109375 0 -0.15625 -0.0625q-0.03125 -0.0625 -0.03125 -0.171875q0 -0.0625 0 -0.140625q0.015625 -0.09375 0.03125 -0.1875q0.015625 -0.09375 0.046875 -0.1875q0.03125 -0.109375 0.078125 -0.171875q0.046875 -0.078125 0.109375 -0.125q0.0625 -0.0625 0.140625 -0.0625l2.328125 0q0.109375 0 0.203125 0.03125q0.09375 0.03125 0.15625 0.109375q0.078125 0.078125 0.09375 0.203125q0.03125 0.125 0 0.296875l-2.890625 14.390625z" fill-rule="nonzero"/><path fill="#0b5394" d="m228.8364 98.97066q0 0.03125 -0.015625 0.109375q0 0.078125 -0.015625 0.171875q-0.015625 0.09375 -0.046875 0.203125q-0.015625 0.109375 -0.0625 0.203125q-0.03125 0.078125 -0.078125 0.140625q-0.046875 0.046875 -0.09375 0.046875q-0.0625 0 -0.15625 -0.03125q-0.09375 -0.03125 -0.234375 -0.078125q-0.125 -0.046875 -0.296875 -0.078125q-0.171875 -0.03125 -0.375 -0.03125q-0.390625 0 -0.671875 0.125q-0.28125 0.109375 -0.484375 0.359375q-0.203125 0.25 -0.34375 0.640625q-0.125 0.375 -0.21875 0.890625l-0.15625 0.828125l1.828125 0q0.09375 0 0.15625 0.0625q0.0625 0.0625 0.0625 0.21875q0 0.109375 -0.03125 0.21875q-0.015625 0.109375 -0.046875 0.21875q-0.015625 0.09375 -0.0625 0.1875q-0.03125 0.09375 -0.09375 0.171875q-0.046875 0.078125 -0.109375 0.125q-0.0625 0.03125 -0.125 0.03125l-1.84375 0l-1.546875 7.765625q-0.15625 0.765625 -0.421875 1.328125q-0.265625 0.5625 -0.65625 0.921875q-0.375 0.375 -0.875 0.546875q-0.5 0.1875 -1.125 0.1875q-0.421875 0 -0.671875 -0.0625q-0.265625 -0.0625 -0.328125 -0.125q-0.03125 -0.046875 -0.046875 -0.109375q-0.03125 -0.046875 -0.03125 -0.140625q0 -0.03125 0.015625 -0.125q0.015625 -0.078125 0.03125 -0.171875q0.015625 -0.09375 0.046875 -0.203125q0.03125 -0.109375 0.078125 -0.203125q0.03125 -0.078125 0.078125 -0.140625q0.03125 -0.046875 0.09375 -0.046875q0.078125 0 0.140625 0q0.046875 0.015625 0.125 0.03125q0.0625 0.015625 0.15625 0.03125q0.09375 0.015625 0.234375 0.015625q0.390625 0 0.671875 -0.125q0.265625 -0.109375 0.46875 -0.359375q0.203125 -0.25 0.328125 -0.640625q0.125 -0.375 0.234375 -0.921875l1.5 -7.453125l-1.171875 0q-0.078125 0 -0.140625 -0.046875q-0.046875 -0.0625 -0.046875 -0.234375q0 -0.0625 0 -0.171875q0.015625 -0.109375 0.03125 -0.21875q0.03125 -0.109375 0.0625 -0.203125q0.046875 -0.109375 0.09375 -0.1875q0.0625 -0.078125 0.125 -0.125q0.0625 -0.046875 0.140625 -0.046875l1.15625 0l0.21875 -1.140625q0.15625 -0.75 0.421875 -1.3125q0.28125 -0.5625 0.65625 -0.921875q0.390625 -0.359375 0.890625 -0.53125q0.515625 -0.1875 1.125 -0.1875q0.203125 0 0.421875 0.03125q0.21875 0.015625 0.40625 0.0625q0.1875 0.03125 0.328125 0.09375q0.140625 0.046875 0.1875 0.09375q0.0625 0.046875 0.078125 0.140625q0.03125 0.078125 0.03125 0.171875zm38.528778 -0.328125q0 0.046875 -0.015625 0.140625q-0.015625 0.078125 -0.03125 0.171875q-0.015625 0.078125 -0.046875 0.1875q-0.03125 0.09375 -0.078125 0.171875q-0.046875 0.078125 -0.109375 0.125q-0.0625 0.046875 -0.125 0.046875l-1.484375 0l-2.6875 13.453125l1.484375 0q0.09375 0 0.125 0.0625q0.046875 0.078125 0.046875 0.1875q0 0.0625 -0.015625 0.140625q0 0.09375 -0.03125 0.1875q-0.015625 0.09375 -0.046875 0.1875q-0.03125 0.09375 -0.078125 0.171875q-0.046875 0.078125 -0.109375 0.125q-0.046875 0.046875 -0.125 0.046875l-2.328125 0q-0.109375 0 -0.203125 -0.046875q-0.09375 -0.03125 -0.15625 -0.109375q-0.0625 -0.0625 -0.09375 -0.1875q-0.03125 -0.125 0.015625 -0.296875l2.875 -14.390625q0.0625 -0.359375 0.28125 -0.5q0.21875 -0.140625 0.4375 -0.140625l2.3125 0q0.1875 0 0.1875 0.265625zm12.767639 12.25q-0.015625 0.078125 -0.0625 0.140625q-0.046875 0.046875 -0.140625 0.078125q-0.078125 0.03125 -0.234375 0.046875q-0.15625 0.015625 -0.375 0.015625q-0.21875 0 -0.375 -0.015625q-0.140625 -0.015625 -0.21875 -0.046875q-0.078125 -0.03125 -0.109375 -0.078125q-0.015625 -0.0625 0 -0.140625l2.046875 -10.265625l-0.015625 0l-6.28125 10.3125q-0.0625 0.125 -0.265625 0.1875q-0.1875 0.046875 -0.546875 0.046875q-0.375 0 -0.53125 -0.0625q-0.15625 -0.0625 -0.171875 -0.171875l-1.953125 -10.3125l-0.015625 0l-2.046875 10.265625q-0.015625 0.078125 -0.0625 0.140625q-0.046875 0.046875 -0.140625 0.078125q-0.09375 0.03125 -0.25 0.046875q-0.140625 0.015625 -0.375 0.015625q-0.21875 0 -0.359375 -0.015625q-0.140625 -0.015625 -0.21875 -0.046875q-0.078125 -0.03125 -0.109375 -0.078125q-0.015625 -0.0625 0 -0.140625l2.15625 -10.84375q0.03125 -0.1875 0.109375 -0.3125q0.09375 -0.140625 0.203125 -0.21875q0.109375 -0.09375 0.234375 -0.125q0.125 -0.046875 0.25 -0.046875l0.90625 0q0.296875 0 0.484375 0.0625q0.203125 0.046875 0.328125 0.171875q0.140625 0.109375 0.203125 0.296875q0.078125 0.1875 0.109375 0.4375l1.703125 8.515625l0.046875 0l5.265625 -8.515625q0.140625 -0.25 0.28125 -0.421875q0.140625 -0.1875 0.296875 -0.296875q0.171875 -0.125 0.375 -0.1875q0.203125 -0.0625 0.46875 -0.0625l1.03125 0q0.140625 0 0.25 0.046875q0.109375 0.03125 0.1875 0.125q0.078125 0.078125 0.09375 0.21875q0.03125 0.125 -0.015625 0.3125l-2.15625 10.84375zm11.622589 0q-0.015625 0.078125 -0.0625 0.140625q-0.046875 0.046875 -0.140625 0.078125q-0.09375 0.03125 -0.25 0.046875q-0.15625 0.015625 -0.390625 0.015625q-0.21875 0 -0.375 -0.015625q-0.140625 -0.015625 -0.234375 -0.046875q-0.078125 -0.03125 -0.109375 -0.078125q-0.015625 -0.0625 0.015625 -0.140625l1.03125 -5.234375l-5.359375 0l-1.046875 5.234375q-0.015625 0.078125 -0.0625 0.140625q-0.046875 0.046875 -0.15625 0.078125q-0.09375 0.03125 -0.25 0.046875q-0.140625 0.015625 -0.359375 0.015625q-0.25 0 -0.390625 -0.015625q-0.140625 -0.015625 -0.234375 -0.046875q-0.078125 -0.03125 -0.109375 -0.078125q-0.015625 -0.0625 0 -0.140625l2.265625 -11.328125q0 -0.0625 0.046875 -0.109375q0.0625 -0.0625 0.15625 -0.09375q0.109375 -0.03125 0.25 -0.046875q0.15625 -0.03125 0.390625 -0.03125q0.21875 0 0.359375 0.03125q0.15625 0.015625 0.234375 0.046875q0.09375 0.03125 0.109375 0.09375q0.015625 0.046875 0.015625 0.109375l-0.9375 4.734375l5.359375 0l0.9375 -4.734375q0.015625 -0.0625 0.0625 -0.109375q0.046875 -0.0625 0.140625 -0.09375q0.109375 -0.03125 0.25 -0.046875q0.15625 -0.03125 0.390625 -0.03125q0.21875 0 0.359375 0.03125q0.15625 0.015625 0.234375 0.046875q0.09375 0.03125 0.109375 0.09375q0.03125 0.046875 0.015625 0.109375l-2.265625 11.328125zm9.545593 -8.125q0 0.046875 -0.015625 0.140625q0 0.078125 -0.03125 0.1875q-0.015625 0.09375 -0.03125 0.1875q-0.015625 0.09375 -0.03125 0.15625q-0.0625 0.203125 -0.171875 0.390625q-0.109375 0.171875 -0.3125 0.40625l-4.640625 5.625l3.765625 0q0.109375 0 0.15625 0.078125q0.0625 0.078125 0.0625 0.234375q0 0.078125 -0.015625 0.1875q0 0.09375 -0.03125 0.203125q-0.03125 0.09375 -0.0625 0.203125q-0.03125 0.09375 -0.09375 0.1875q-0.046875 0.078125 -0.125 0.125q-0.0625 0.046875 -0.140625 0.046875l-5.078125 0q-0.171875 0 -0.25 -0.09375q-0.078125 -0.09375 -0.078125 -0.265625q0 -0.0625 0.015625 -0.15625q0.015625 -0.109375 0.03125 -0.203125q0.03125 -0.109375 0.046875 -0.203125q0.015625 -0.09375 0.046875 -0.140625q0.015625 -0.0625 0.03125 -0.125q0.03125 -0.0625 0.078125 -0.140625q0.0625 -0.078125 0.140625 -0.1875q0.09375 -0.109375 0.203125 -0.25l4.671875 -5.625l-3.421875 0q-0.125 0 -0.1875 -0.078125q-0.046875 -0.078125 -0.046875 -0.25q0 -0.078125 0 -0.171875q0.015625 -0.109375 0.03125 -0.203125q0.03125 -0.109375 0.0625 -0.21875q0.046875 -0.109375 0.09375 -0.1875q0.0625 -0.078125 0.125 -0.109375q0.078125 -0.046875 0.15625 -0.046875l4.734375 0q0.171875 0 0.234375 0.078125q0.078125 0.078125 0.078125 0.21875zm2.8695984 10.640625q-0.0625 0.359375 -0.28125 0.5q-0.203125 0.140625 -0.40625 0.140625l-2.34375 0q-0.078125 0 -0.125 -0.078125q-0.046875 -0.0625 -0.046875 -0.1875q0 -0.0625 0.015625 -0.140625q0 -0.078125 0.015625 -0.171875q0.015625 -0.09375 0.0625 -0.1875q0.03125 -0.09375 0.078125 -0.171875q0.046875 -0.078125 0.109375 -0.125q0.046875 -0.046875 0.125 -0.046875l1.46875 0l2.6875 -13.453125l-1.46875 0q-0.109375 0 -0.15625 -0.0625q-0.03125 -0.0625 -0.03125 -0.171875q0 -0.0625 0 -0.140625q0.015625 -0.09375 0.03125 -0.1875q0.015625 -0.09375 0.046875 -0.1875q0.03125 -0.109375 0.078125 -0.171875q0.046875 -0.078125 0.109375 -0.125q0.0625 -0.0625 0.140625 -0.0625l2.328125 0q0.109375 0 0.203125 0.03125q0.09375 0.03125 0.15625 0.109375q0.078125 0.078125 0.09375 0.203125q0.03125 0.125 0 0.296875l-2.890625 14.390625z" fill-rule="nonzero"/><path fill="#0b5394" d="m231.0864 136.11128q0 0.484375 -0.109375 1.015625q-0.109375 0.515625 -0.359375 1.03125q-0.25 0.5 -0.625 0.953125q-0.375 0.453125 -0.921875 0.796875q-0.53125 0.34375 -1.234375 0.546875q-0.6875 0.1875 -1.640625 0.1875l-1.625 0l-0.84375 4.25q-0.015625 0.078125 -0.0625 0.140625q-0.046875 0.046875 -0.15625 0.078125q-0.09375 0.03125 -0.25 0.046875q-0.140625 0.015625 -0.375 0.015625q-0.203125 0 -0.359375 -0.015625q-0.140625 -0.015625 -0.234375 -0.046875q-0.078125 -0.03125 -0.109375 -0.078125q-0.03125 -0.0625 -0.015625 -0.140625l2.171875 -10.875q0.0625 -0.375 0.296875 -0.515625q0.234375 -0.15625 0.53125 -0.15625l2.3125 0q0.46875 0 0.8125 0.03125q0.34375 0.03125 0.671875 0.09375q0.5 0.109375 0.890625 0.34375q0.40625 0.21875 0.671875 0.5625q0.28125 0.328125 0.421875 0.765625q0.140625 0.4375 0.140625 0.96875zm-1.65625 0.15625q0 -0.5625 -0.28125 -0.96875q-0.265625 -0.40625 -0.859375 -0.5625q-0.21875 -0.0625 -0.484375 -0.078125q-0.25 -0.03125 -0.5625 -0.03125l-1.46875 0l-0.9375 4.734375l1.484375 0q0.65625 0 1.09375 -0.140625q0.453125 -0.15625 0.78125 -0.390625q0.34375 -0.234375 0.578125 -0.546875q0.234375 -0.328125 0.375 -0.671875q0.140625 -0.34375 0.203125 -0.6875q0.078125 -0.34375 0.078125 -0.65625zm13.262848 -1.640625q0 0.0625 -0.015625 0.15625q-0.015625 0.09375 -0.046875 0.203125q-0.015625 0.109375 -0.0625 0.21875q-0.03125 0.109375 -0.078125 0.203125q-0.03125 0.078125 -0.09375 0.140625q-0.046875 0.046875 -0.125 0.046875q-0.125 0 -0.359375 -0.15625q-0.234375 -0.171875 -0.625 -0.375q-0.390625 -0.21875 -0.953125 -0.375q-0.546875 -0.171875 -1.3125 -0.171875q-0.8125 0 -1.53125 0.25q-0.703125 0.234375 -1.296875 0.65625q-0.578125 0.421875 -1.046875 1.0q-0.46875 0.578125 -0.796875 1.265625q-0.3125 0.671875 -0.484375 1.421875q-0.171875 0.734375 -0.171875 1.5q0 0.8125 0.234375 1.421875q0.234375 0.609375 0.671875 1.03125q0.4375 0.421875 1.046875 0.640625q0.625 0.203125 1.390625 0.203125q0.5625 0 1.171875 -0.125q0.625 -0.125 1.15625 -0.40625l0.6875 -3.421875l-2.734375 0q-0.109375 0 -0.171875 -0.0625q-0.046875 -0.078125 -0.046875 -0.234375q0 -0.0625 0 -0.15625q0.015625 -0.109375 0.03125 -0.21875q0.03125 -0.109375 0.078125 -0.21875q0.046875 -0.109375 0.09375 -0.1875q0.0625 -0.09375 0.125 -0.140625q0.0625 -0.0625 0.15625 -0.0625l3.734375 0q0.265625 0 0.375 0.171875q0.109375 0.171875 0.046875 0.46875l-0.90625 4.53125q-0.046875 0.171875 -0.109375 0.28125q-0.046875 0.109375 -0.125 0.1875q-0.078125 0.078125 -0.421875 0.25q-0.328125 0.15625 -0.828125 0.328125q-0.5 0.15625 -1.140625 0.265625q-0.625 0.125 -1.328125 0.125q-1.171875 0 -2.078125 -0.296875q-0.90625 -0.3125 -1.515625 -0.890625q-0.609375 -0.578125 -0.9375 -1.40625q-0.3125 -0.828125 -0.3125 -1.875q0 -0.984375 0.21875 -1.921875q0.234375 -0.9375 0.640625 -1.78125q0.421875 -0.859375 1.03125 -1.578125q0.625 -0.71875 1.421875 -1.234375q0.796875 -0.515625 1.75 -0.8125q0.953125 -0.3125 2.078125 -0.3125q0.625 0 1.1875 0.125q0.5625 0.109375 1.0 0.265625q0.4375 0.15625 0.734375 0.359375q0.296875 0.1875 0.40625 0.28125q0.109375 0.09375 0.140625 0.1875q0.046875 0.09375 0.046875 0.234375zm9.76947 9.9375q0.03125 0.203125 0.015625 0.328125q-0.015625 0.125 -0.109375 0.1875q-0.078125 0.0625 -0.265625 0.078125q-0.171875 0.015625 -0.484375 0.015625q-0.203125 0 -0.359375 -0.015625q-0.140625 0 -0.21875 -0.03125q-0.078125 -0.03125 -0.109375 -0.078125q-0.03125 -0.0625 -0.046875 -0.15625l-0.4375 -2.859375l-4.90625 0l-1.546875 2.84375q-0.046875 0.09375 -0.109375 0.15625q-0.046875 0.046875 -0.15625 0.09375q-0.109375 0.03125 -0.28125 0.03125q-0.15625 0.015625 -0.40625 0.015625q-0.265625 0 -0.421875 -0.015625q-0.171875 -0.015625 -0.234375 -0.078125q-0.0625 -0.078125 -0.03125 -0.1875q0.015625 -0.125 0.109375 -0.328125l6.140625 -10.953125q0.0625 -0.09375 0.140625 -0.15625q0.078125 -0.0625 0.1875 -0.09375q0.125 -0.046875 0.296875 -0.0625q0.1875 -0.015625 0.453125 -0.015625q0.296875 0 0.484375 0.015625q0.1875 0.015625 0.296875 0.0625q0.125 0.03125 0.171875 0.09375q0.046875 0.0625 0.0625 0.171875l1.765625 10.9375zm-3.0625 -9.65625l-0.015625 0l-3.1875 5.875l4.078125 0l-0.875 -5.875zm14.949951 -2.265625q0 0.046875 -0.015625 0.140625q-0.015625 0.078125 -0.03125 0.171875q-0.015625 0.078125 -0.046875 0.1875q-0.03125 0.09375 -0.078125 0.171875q-0.046875 0.078125 -0.109375 0.125q-0.0625 0.046875 -0.125 0.046875l-1.484375 0l-2.6875 13.453125l1.484375 0q0.09375 0 0.125 0.0625q0.046875 0.078125 0.046875 0.1875q0 0.0625 -0.015625 0.140625q0 0.09375 -0.03125 0.1875q-0.015625 0.09375 -0.046875 0.1875q-0.03125 0.09375 -0.078125 0.171875q-0.046875 0.078125 -0.109375 0.125q-0.046875 0.046875 -0.125 0.046875l-2.328125 0q-0.109375 0 -0.203125 -0.046875q-0.09375 -0.03125 -0.15625 -0.109375q-0.0625 -0.0625 -0.09375 -0.1875q-0.03125 -0.125 0.015625 -0.296875l2.875 -14.390625q0.0625 -0.359375 0.28125 -0.5q0.21875 -0.140625 0.4375 -0.140625l2.3125 0q0.1875 0 0.1875 0.265625zm6.595764 12.25q-0.03125 0.15625 -0.203125 0.21875q-0.15625 0.0625 -0.53125 0.0625q-0.1875 0 -0.3125 -0.015625q-0.125 -0.015625 -0.203125 -0.046875q-0.0625 -0.03125 -0.09375 -0.078125q-0.015625 -0.046875 0 -0.140625l0.296875 -1.53125q-0.125 0.3125 -0.4375 0.65625q-0.296875 0.328125 -0.734375 0.625q-0.421875 0.28125 -0.9375 0.46875q-0.515625 0.1875 -1.046875 0.1875q-0.546875 0 -0.9375 -0.140625q-0.390625 -0.140625 -0.671875 -0.375q-0.265625 -0.234375 -0.4375 -0.546875q-0.15625 -0.328125 -0.265625 -0.65625q-0.09375 -0.328125 -0.125 -0.65625q-0.03125 -0.34375 -0.03125 -0.625q0 -0.53125 0.09375 -1.1875q0.109375 -0.65625 0.328125 -1.3125q0.21875 -0.671875 0.5625 -1.296875q0.34375 -0.640625 0.828125 -1.125q0.484375 -0.484375 1.109375 -0.78125q0.640625 -0.3125 1.4375 -0.3125q0.390625 0 0.734375 0.09375q0.34375 0.09375 0.625 0.25q0.28125 0.140625 0.515625 0.359375q0.25 0.203125 0.4375 0.421875l0.921875 -4.640625q0.015625 -0.0625 0.0625 -0.125q0.046875 -0.0625 0.140625 -0.09375q0.09375 -0.03125 0.234375 -0.046875q0.140625 -0.03125 0.375 -0.03125q0.21875 0 0.359375 0.03125q0.140625 0.015625 0.21875 0.046875q0.078125 0.03125 0.09375 0.09375q0.03125 0.0625 0.015625 0.125l-2.421875 12.125zm-0.296875 -6.03125q-0.421875 -0.625 -0.921875 -0.953125q-0.5 -0.328125 -1.109375 -0.328125q-0.484375 0 -0.875 0.234375q-0.390625 0.21875 -0.703125 0.59375q-0.296875 0.375 -0.53125 0.859375q-0.21875 0.46875 -0.375 0.984375q-0.140625 0.515625 -0.21875 1.015625q-0.0625 0.5 -0.0625 0.921875q0 0.890625 0.296875 1.359375q0.3125 0.46875 0.96875 0.46875q0.5 0 1.0 -0.265625q0.515625 -0.28125 0.953125 -0.765625q0.4375 -0.484375 0.765625 -1.140625q0.34375 -0.671875 0.515625 -1.46875l0.296875 -1.515625zm12.061066 -3.21875q0 0.546875 -0.15625 1.046875q-0.140625 0.5 -0.421875 0.921875q-0.28125 0.40625 -0.6875 0.734375q-0.390625 0.3125 -0.890625 0.515625q0.390625 0.078125 0.71875 0.28125q0.328125 0.1875 0.5625 0.46875q0.25 0.28125 0.375 0.671875q0.125 0.390625 0.125 0.875q0 0.484375 -0.125 0.96875q-0.125 0.484375 -0.390625 0.9375q-0.25 0.4375 -0.640625 0.8125q-0.390625 0.375 -0.90625 0.65625q-0.515625 0.28125 -1.15625 0.4375q-0.640625 0.15625 -1.5 0.15625l-3.125 0q-0.296875 0 -0.453125 -0.140625q-0.140625 -0.15625 -0.0625 -0.5l2.09375 -10.515625q0.0625 -0.34375 0.296875 -0.484375q0.234375 -0.140625 0.46875 -0.140625l2.53125 0q0.90625 0 1.515625 0.15625q0.609375 0.140625 1.015625 0.4375q0.40625 0.28125 0.609375 0.71875q0.203125 0.421875 0.203125 0.984375zm-1.671875 0.28125q0 -0.3125 -0.109375 -0.546875q-0.09375 -0.234375 -0.3125 -0.40625q-0.21875 -0.171875 -0.5625 -0.265625q-0.34375 -0.09375 -0.90625 -0.09375l-1.65625 0l-0.75 3.8125l1.78125 0q0.71875 0 1.171875 -0.234375q0.46875 -0.234375 0.765625 -0.59375q0.296875 -0.375 0.4375 -0.8125q0.140625 -0.453125 0.140625 -0.859375zm-0.359375 5.34375q0 -0.765625 -0.53125 -1.171875q-0.53125 -0.421875 -1.65625 -0.421875l-2.015625 0l-0.828125 4.15625l2.203125 0q0.75 0 1.265625 -0.203125q0.515625 -0.21875 0.859375 -0.5625q0.34375 -0.359375 0.515625 -0.828125q0.1875 -0.46875 0.1875 -0.96875zm5.2729797 6.140625q-0.0625 0.359375 -0.28125 0.5q-0.203125 0.140625 -0.40625 0.140625l-2.34375 0q-0.078125 0 -0.125 -0.078125q-0.046875 -0.0625 -0.046875 -0.1875q0 -0.0625 0.015625 -0.140625q0 -0.078125 0.015625 -0.171875q0.015625 -0.09375 0.0625 -0.1875q0.03125 -0.09375 0.078125 -0.171875q0.046875 -0.078125 0.109375 -0.125q0.046875 -0.046875 0.125 -0.046875l1.46875 0l2.6875 -13.453125l-1.46875 0q-0.109375 0 -0.15625 -0.0625q-0.03125 -0.0625 -0.03125 -0.171875q0 -0.0625 0 -0.140625q0.015625 -0.09375 0.03125 -0.1875q0.015625 -0.09375 0.046875 -0.1875q0.03125 -0.109375 0.078125 -0.171875q0.046875 -0.078125 0.109375 -0.125q0.0625 -0.0625 0.140625 -0.0625l2.328125 0q0.109375 0 0.203125 0.03125q0.09375 0.03125 0.15625 0.109375q0.078125 0.078125 0.09375 0.203125q0.03125 0.125 0 0.296875l-2.890625 14.390625z" fill-rule="nonzero"/><path fill="#000000" fill-opacity="0.0" d="m669.99744 95.18206l-50.519714 0" fill-rule="evenodd"/><path stroke="#6d9eeb" stroke-width="1.0" stroke-linejoin="round" stroke-linecap="butt" d="m666.5703 95.18205l-47.09259 0" fill-rule="evenodd"/><path fill="#6d9eeb" stroke="#6d9eeb" stroke-width="1.0" stroke-linecap="butt" d="m666.5703 95.18205l-1.1245728 1.124588l3.0897827 -1.124588l-3.0897827 -1.1245804z" fill-rule="evenodd"/><path fill="#000000" fill-opacity="0.0" d="m675.32025 86.523476l126.2677 0l0 33.32283l-126.2677 0z" fill-rule="evenodd"/><path fill="#0b5394" d="m693.7734 92.620514q0 0.046875 0 0.140625q0 0.09375 -0.03125 0.203125q-0.015625 0.109375 -0.046875 0.234375q-0.03125 0.109375 -0.09375 0.203125q-0.046875 0.09375 -0.125 0.15625q-0.078125 0.0625 -0.171875 0.0625l-4.609375 0l-0.734375 3.703125l3.953125 0q0.109375 0 0.15625 0.078125q0.0625 0.0625 0.0625 0.203125q0 0.046875 -0.015625 0.140625q-0.015625 0.09375 -0.03125 0.21875q-0.015625 0.109375 -0.0625 0.21875q-0.03125 0.109375 -0.078125 0.203125q-0.046875 0.078125 -0.125 0.140625q-0.0625 0.0625 -0.15625 0.0625l-3.953125 0l-0.859375 4.21875l4.6875 0q0.09375 0 0.15625 0.078125q0.0625 0.0625 0.0625 0.21875q0 0.046875 -0.015625 0.15625q0 0.09375 -0.03125 0.203125q-0.015625 0.109375 -0.046875 0.234375q-0.03125 0.109375 -0.09375 0.203125q-0.046875 0.09375 -0.125 0.15625q-0.078125 0.046875 -0.171875 0.046875l-5.671875 0q-0.09375 0 -0.1875 -0.03125q-0.09375 -0.03125 -0.171875 -0.109375q-0.0625 -0.078125 -0.09375 -0.203125q-0.03125 -0.125 0.015625 -0.296875l2.109375 -10.515625q0.0625 -0.34375 0.28125 -0.484375q0.21875 -0.140625 0.421875 -0.140625l5.59375 0q0.203125 0 0.203125 0.296875zm9.390747 10.84375q-0.03125 0.171875 -0.125 0.3125q-0.078125 0.125 -0.1875 0.203125q-0.09375 0.078125 -0.21875 0.125q-0.109375 0.03125 -0.234375 0.03125l-0.59375 0q-0.234375 0 -0.40625 -0.046875q-0.15625 -0.0625 -0.28125 -0.1875q-0.125 -0.140625 -0.21875 -0.359375q-0.09375 -0.21875 -0.203125 -0.53125l-2.203125 -6.28125q-0.234375 -0.671875 -0.46875 -1.34375q-0.21875 -0.671875 -0.421875 -1.34375l-0.015625 0q-0.125 0.75 -0.265625 1.484375q-0.125 0.734375 -0.28125 1.46875l-1.359375 6.875q-0.015625 0.078125 -0.078125 0.140625q-0.046875 0.046875 -0.140625 0.078125q-0.09375 0.03125 -0.25 0.046875q-0.140625 0.015625 -0.34375 0.015625q-0.21875 0 -0.359375 -0.015625q-0.140625 -0.015625 -0.21875 -0.046875q-0.0625 -0.03125 -0.09375 -0.078125q-0.015625 -0.0625 0 -0.140625l2.171875 -10.875q0.0625 -0.375 0.296875 -0.515625q0.234375 -0.15625 0.46875 -0.15625l0.71875 0q0.21875 0 0.375 0.046875q0.171875 0.03125 0.28125 0.15625q0.125 0.125 0.21875 0.3125q0.09375 0.171875 0.203125 0.46875l2.234375 6.375q0.203125 0.59375 0.40625 1.1875q0.21875 0.578125 0.40625 1.1875l0.03125 0q0.125 -0.75 0.265625 -1.546875q0.15625 -0.8125 0.296875 -1.546875l1.296875 -6.390625q0.015625 -0.078125 0.0625 -0.125q0.046875 -0.046875 0.125 -0.078125q0.09375 -0.046875 0.234375 -0.0625q0.140625 -0.015625 0.359375 -0.015625q0.21875 0 0.359375 0.015625q0.140625 0.015625 0.21875 0.0625q0.078125 0.03125 0.09375 0.078125q0.03125 0.046875 0.03125 0.125l-2.1875 10.890625zm11.196411 -5.078125q0 0.6875 -0.140625 1.390625q-0.125 0.6875 -0.390625 1.34375q-0.25 0.65625 -0.65625 1.234375q-0.390625 0.5625 -0.9375 1.0q-0.546875 0.421875 -1.234375 0.671875q-0.6875 0.25 -1.53125 0.25q-0.875 0 -1.5 -0.203125q-0.625 -0.21875 -1.03125 -0.609375q-0.390625 -0.40625 -0.59375 -0.984375q-0.1875 -0.59375 -0.1875 -1.328125q0 -0.671875 0.125 -1.375q0.125 -0.703125 0.390625 -1.34375q0.265625 -0.65625 0.65625 -1.234375q0.40625 -0.578125 0.9375 -1.0q0.546875 -0.421875 1.234375 -0.671875q0.6875 -0.265625 1.53125 -0.265625q0.875 0 1.5 0.21875q0.625 0.21875 1.03125 0.625q0.40625 0.390625 0.59375 0.984375q0.203125 0.578125 0.203125 1.296875zm-1.59375 0.09375q0 -0.453125 -0.09375 -0.8125q-0.09375 -0.375 -0.328125 -0.625q-0.21875 -0.25 -0.578125 -0.375q-0.359375 -0.140625 -0.859375 -0.140625q-0.546875 0 -1.0 0.203125q-0.4375 0.1875 -0.796875 0.53125q-0.34375 0.328125 -0.609375 0.78125q-0.265625 0.4375 -0.4375 0.9375q-0.15625 0.5 -0.25 1.046875q-0.078125 0.53125 -0.078125 1.03125q0 0.453125 0.09375 0.828125q0.109375 0.359375 0.328125 0.625q0.234375 0.25 0.578125 0.390625q0.359375 0.125 0.875 0.125q0.546875 0 0.984375 -0.1875q0.453125 -0.203125 0.796875 -0.53125q0.359375 -0.34375 0.609375 -0.78125q0.265625 -0.453125 0.4375 -0.953125q0.171875 -0.515625 0.25 -1.046875q0.078125 -0.53125 0.078125 -1.046875zm11.839722 -3.859375q0 0.546875 -0.15625 1.046875q-0.140625 0.5 -0.421875 0.921875q-0.28125 0.40625 -0.6875 0.734375q-0.390625 0.3125 -0.890625 0.515625q0.390625 0.078125 0.71875 0.28125q0.328125 0.1875 0.5625 0.46875q0.25 0.28125 0.375 0.671875q0.125 0.390625 0.125 0.875q0 0.484375 -0.125 0.96875q-0.125 0.484375 -0.390625 0.9375q-0.25 0.4375 -0.640625 0.8125q-0.390625 0.375 -0.90625 0.65625q-0.515625 0.28125 -1.15625 0.4375q-0.640625 0.15625 -1.5 0.15625l-3.125 0q-0.296875 0 -0.453125 -0.140625q-0.140625 -0.15625 -0.0625 -0.5l2.09375 -10.515625q0.0625 -0.34375 0.296875 -0.484375q0.234375 -0.140625 0.46875 -0.140625l2.53125 0q0.90625 0 1.515625 0.15625q0.609375 0.140625 1.015625 0.4375q0.40625 0.28125 0.609375 0.71875q0.203125 0.421875 0.203125 0.984375zm-1.671875 0.28125q0 -0.3125 -0.109375 -0.546875q-0.09375 -0.234375 -0.3125 -0.40625q-0.21875 -0.171875 -0.5625 -0.265625q-0.34375 -0.09375 -0.90625 -0.09375l-1.65625 0l-0.75 3.8125l1.78125 0q0.71875 0 1.171875 -0.234375q0.46875 -0.234375 0.765625 -0.59375q0.296875 -0.375 0.4375 -0.8125q0.140625 -0.453125 0.140625 -0.859375zm-0.359375 5.34375q0 -0.765625 -0.53125 -1.171875q-0.53125 -0.421875 -1.65625 -0.421875l-2.015625 0l-0.828125 4.15625l2.203125 0q0.75 0 1.265625 -0.203125q0.515625 -0.21875 0.859375 -0.5625q0.34375 -0.359375 0.515625 -0.828125q0.1875 -0.46875 0.1875 -0.96875zm13.350037 -8.625q0 0.046875 -0.015625 0.140625q-0.015625 0.078125 -0.03125 0.171875q-0.015625 0.078125 -0.046875 0.1875q-0.03125 0.09375 -0.078125 0.171875q-0.046875 0.078125 -0.109375 0.125q-0.0625 0.046875 -0.125 0.046875l-1.484375 0l-2.6875 13.453125l1.484375 0q0.09375 0 0.125 0.0625q0.046875 0.078125 0.046875 0.1875q0 0.0625 -0.015625 0.140625q0 0.09375 -0.03125 0.1875q-0.015625 0.09375 -0.046875 0.1875q-0.03125 0.09375 -0.078125 0.171875q-0.046875 0.078125 -0.109375 0.125q-0.046875 0.046875 -0.125 0.046875l-2.328125 0q-0.109375 0 -0.203125 -0.046875q-0.09375 -0.03125 -0.15625 -0.109375q-0.0625 -0.0625 -0.09375 -0.1875q-0.03125 -0.125 0.015625 -0.296875l2.875 -14.390625q0.0625 -0.359375 0.28125 -0.5q0.21875 -0.140625 0.4375 -0.140625l2.3125 0q0.1875 0 0.1875 0.265625zm8.080139 6.625q0 0.546875 -0.109375 1.203125q-0.09375 0.65625 -0.3125 1.328125q-0.21875 0.671875 -0.5625 1.3125q-0.34375 0.625 -0.828125 1.109375q-0.484375 0.484375 -1.125 0.78125q-0.625 0.296875 -1.421875 0.296875q-0.8125 0 -1.40625 -0.3125q-0.578125 -0.3125 -1.03125 -0.890625l-0.15625 0.796875q-0.03125 0.15625 -0.203125 0.21875q-0.171875 0.0625 -0.546875 0.0625q-0.375 0 -0.5 -0.0625q-0.125 -0.078125 -0.09375 -0.21875l2.421875 -12.15625q0.015625 -0.078125 0.046875 -0.125q0.046875 -0.0625 0.140625 -0.09375q0.109375 -0.046875 0.25 -0.0625q0.15625 -0.015625 0.375 -0.015625q0.21875 0 0.359375 0.015625q0.140625 0.015625 0.21875 0.0625q0.078125 0.03125 0.09375 0.09375q0.03125 0.046875 0.015625 0.125l-0.71875 3.65625q-0.046875 0.234375 -0.125 0.5q-0.0625 0.25 -0.125 0.5q-0.0625 0.25 -0.140625 0.46875q-0.0625 0.21875 -0.125 0.390625q0.15625 -0.328125 0.46875 -0.65625q0.3125 -0.34375 0.734375 -0.625q0.421875 -0.296875 0.921875 -0.484375q0.5 -0.203125 1.015625 -0.203125q0.546875 0 0.9375 0.15625q0.390625 0.140625 0.65625 0.390625q0.28125 0.234375 0.453125 0.546875q0.171875 0.3125 0.25 0.640625q0.09375 0.328125 0.125 0.65625q0.046875 0.3125 0.046875 0.59375zm-1.578125 0.125q0 -0.25 -0.046875 -0.5625q-0.046875 -0.328125 -0.1875 -0.59375q-0.125 -0.28125 -0.375 -0.46875q-0.25 -0.1875 -0.65625 -0.1875q-0.5 0 -1.015625 0.28125q-0.5 0.28125 -0.9375 0.78125q-0.4375 0.5 -0.78125 1.171875q-0.34375 0.671875 -0.5 1.453125l-0.296875 1.515625q0.421875 0.625 0.90625 0.9375q0.5 0.296875 1.125 0.296875q0.46875 0 0.84375 -0.21875q0.390625 -0.21875 0.703125 -0.578125q0.3125 -0.375 0.53125 -0.84375q0.234375 -0.46875 0.375 -0.984375q0.15625 -0.515625 0.234375 -1.03125q0.078125 -0.515625 0.078125 -0.96875zm6.73291 -5.453125q-0.046875 0.25 -0.125 0.4375q-0.078125 0.171875 -0.203125 0.28125q-0.125 0.09375 -0.328125 0.140625q-0.1875 0.046875 -0.453125 0.046875q-0.265625 0 -0.4375 -0.046875q-0.171875 -0.046875 -0.265625 -0.140625q-0.078125 -0.109375 -0.09375 -0.28125q0 -0.1875 0.046875 -0.4375q0.0625 -0.25 0.140625 -0.421875q0.078125 -0.171875 0.203125 -0.28125q0.125 -0.109375 0.3125 -0.15625q0.1875 -0.046875 0.46875 -0.046875q0.265625 0 0.421875 0.046875q0.171875 0.046875 0.25 0.15625q0.09375 0.109375 0.109375 0.28125q0.015625 0.171875 -0.046875 0.421875zm-2.359375 10.953125q-0.015625 0.078125 -0.0625 0.140625q-0.046875 0.046875 -0.140625 0.078125q-0.09375 0.03125 -0.25 0.046875q-0.140625 0.015625 -0.359375 0.015625q-0.21875 0 -0.359375 -0.015625q-0.140625 -0.015625 -0.21875 -0.046875q-0.078125 -0.03125 -0.109375 -0.078125q-0.015625 -0.0625 0 -0.140625l1.625 -8.1875q0.015625 -0.0625 0.0625 -0.109375q0.046875 -0.0625 0.125 -0.09375q0.09375 -0.046875 0.25 -0.0625q0.15625 -0.015625 0.375 -0.015625q0.21875 0 0.359375 0.015625q0.140625 0.015625 0.21875 0.0625q0.078125 0.03125 0.09375 0.09375q0.03125 0.046875 0.015625 0.109375l-1.625 8.1875zm8.640869 -8.09375q0 0.078125 -0.015625 0.171875q0 0.09375 -0.03125 0.203125q-0.015625 0.09375 -0.0625 0.203125q-0.046875 0.09375 -0.109375 0.171875q-0.046875 0.078125 -0.109375 0.125q-0.0625 0.03125 -0.140625 0.03125l-2.09375 0l-0.921875 4.578125q-0.03125 0.1875 -0.0625 0.4375q-0.03125 0.234375 -0.03125 0.390625q0 0.453125 0.1875 0.671875q0.203125 0.21875 0.640625 0.21875q0.25 0 0.421875 -0.046875q0.1875 -0.046875 0.3125 -0.078125q0.140625 -0.046875 0.234375 -0.09375q0.109375 -0.046875 0.1875 -0.046875q0.0625 0 0.109375 0.0625q0.046875 0.046875 0.046875 0.1875q0 0.109375 -0.03125 0.25q-0.015625 0.140625 -0.0625 0.28125q-0.03125 0.140625 -0.09375 0.25q-0.046875 0.109375 -0.109375 0.171875q-0.078125 0.0625 -0.21875 0.125q-0.140625 0.0625 -0.34375 0.109375q-0.1875 0.046875 -0.40625 0.078125q-0.203125 0.03125 -0.421875 0.03125q-0.5 0 -0.875 -0.109375q-0.375 -0.109375 -0.640625 -0.34375q-0.25 -0.234375 -0.375 -0.578125q-0.109375 -0.359375 -0.109375 -0.84375q0 -0.109375 0 -0.234375q0.015625 -0.140625 0.03125 -0.28125q0.03125 -0.15625 0.046875 -0.296875q0.03125 -0.140625 0.046875 -0.28125l0.921875 -4.609375l-1.140625 0q-0.09375 0 -0.15625 -0.046875q-0.046875 -0.0625 -0.046875 -0.234375q0 -0.125 0.015625 -0.296875q0.03125 -0.171875 0.078125 -0.3125q0.0625 -0.15625 0.140625 -0.25q0.09375 -0.09375 0.21875 -0.09375l1.140625 0l0.40625 -1.953125q0 -0.0625 0.046875 -0.109375q0.0625 -0.0625 0.140625 -0.109375q0.09375 -0.046875 0.234375 -0.0625q0.15625 -0.015625 0.375 -0.015625q0.21875 0 0.359375 0.015625q0.15625 0.015625 0.21875 0.0625q0.078125 0.046875 0.09375 0.109375q0.03125 0.046875 0.03125 0.109375l-0.390625 1.953125l2.09375 0q0.140625 0 0.171875 0.09375q0.046875 0.09375 0.046875 0.234375zm6.6084595 0.34375q0 0.09375 -0.03125 0.25q-0.03125 0.140625 -0.078125 0.296875q-0.046875 0.140625 -0.125 0.25q-0.0625 0.09375 -0.140625 0.09375q-0.109375 0 -0.265625 -0.078125q-0.15625 -0.09375 -0.375 -0.203125q-0.21875 -0.109375 -0.53125 -0.203125q-0.296875 -0.09375 -0.703125 -0.09375q-0.40625 0 -0.71875 0.125q-0.3125 0.109375 -0.53125 0.3125q-0.203125 0.1875 -0.3125 0.4375q-0.109375 0.25 -0.109375 0.515625q0 0.375 0.234375 0.625q0.25 0.234375 0.609375 0.421875q0.375 0.1875 0.796875 0.375q0.421875 0.1875 0.78125 0.453125q0.359375 0.265625 0.59375 0.65625q0.25 0.375 0.25 0.9375q0 0.640625 -0.25 1.203125q-0.25 0.546875 -0.71875 0.953125q-0.46875 0.390625 -1.140625 0.609375q-0.65625 0.21875 -1.484375 0.21875q-0.421875 0 -0.796875 -0.0625q-0.375 -0.0625 -0.6875 -0.15625q-0.296875 -0.109375 -0.515625 -0.234375q-0.21875 -0.125 -0.34375 -0.234375q-0.078125 -0.0625 -0.109375 -0.140625q-0.03125 -0.078125 -0.03125 -0.1875q0 -0.078125 0 -0.171875q0.015625 -0.109375 0.046875 -0.21875q0.03125 -0.109375 0.0625 -0.203125q0.03125 -0.109375 0.078125 -0.1875q0.046875 -0.078125 0.09375 -0.125q0.046875 -0.046875 0.109375 -0.046875q0.109375 0 0.265625 0.125q0.15625 0.109375 0.40625 0.25q0.25 0.140625 0.609375 0.265625q0.375 0.125 0.9375 0.125q0.5 0 0.859375 -0.125q0.359375 -0.125 0.59375 -0.328125q0.234375 -0.203125 0.34375 -0.46875q0.125 -0.28125 0.125 -0.578125q0 -0.390625 -0.234375 -0.625q-0.234375 -0.234375 -0.59375 -0.4375q-0.359375 -0.203125 -0.78125 -0.390625q-0.421875 -0.1875 -0.78125 -0.4375q-0.359375 -0.265625 -0.609375 -0.640625q-0.234375 -0.390625 -0.234375 -0.96875q0 -0.59375 0.234375 -1.109375q0.234375 -0.515625 0.671875 -0.890625q0.4375 -0.390625 1.03125 -0.59375q0.609375 -0.21875 1.359375 -0.21875q0.34375 0 0.65625 0.0625q0.328125 0.046875 0.59375 0.140625q0.28125 0.078125 0.484375 0.1875q0.203125 0.09375 0.296875 0.1875q0.109375 0.09375 0.109375 0.28125zm3.11969 10.265625q-0.0625 0.359375 -0.28125 0.5q-0.203125 0.140625 -0.40625 0.140625l-2.34375 0q-0.078125 0 -0.125 -0.078125q-0.046875 -0.0625 -0.046875 -0.1875q0 -0.0625 0.015625 -0.140625q0 -0.078125 0.015625 -0.171875q0.015625 -0.09375 0.0625 -0.1875q0.03125 -0.09375 0.078125 -0.171875q0.046875 -0.078125 0.109375 -0.125q0.046875 -0.046875 0.125 -0.046875l1.46875 0l2.6875 -13.453125l-1.46875 0q-0.109375 0 -0.15625 -0.0625q-0.03125 -0.0625 -0.03125 -0.171875q0 -0.0625 0 -0.140625q0.015625 -0.09375 0.03125 -0.1875q0.015625 -0.09375 0.046875 -0.1875q0.03125 -0.109375 0.078125 -0.171875q0.046875 -0.078125 0.109375 -0.125q0.0625 -0.0625 0.140625 -0.0625l2.328125 0q0.109375 0 0.203125 0.03125q0.09375 0.03125 0.15625 0.109375q0.078125 0.078125 0.09375 0.203125q0.03125 0.125 0 0.296875l-2.890625 14.390625z" fill-rule="nonzero"/></g></svg>